<?xml version="1.0" encoding="UTF-8"?>
<svg version="1.1" xmlns="http://www.w3.org/2000/svg" width="512" height="512">
<path d="M0 0 C35.15739373 1.17191312 35.15739373 1.17191312 47.625 3.125 C48.34160797 3.2322641 49.05821594 3.3395282 49.79653931 3.45004272 C72.86669037 6.91830239 95.0550713 13.14506034 117 21 C117.67579102 21.23960449 118.35158203 21.47920898 119.04785156 21.72607422 C127.95449055 24.91115005 136.52380601 28.81841096 145 33 C145.77875488 33.38397949 146.55750977 33.76795898 147.35986328 34.16357422 C164.72644639 42.81107596 181.15422905 52.8806162 196.875 64.25 C197.50583496 64.70375 198.13666992 65.1575 198.78662109 65.625 C200.23169771 66.69732711 201.62288956 67.84168281 203 69 C203 69.66 203 70.32 203 71 C203.721875 71.2475 204.44375 71.495 205.1875 71.75 C208.27606582 73.12269592 210.51011418 74.72353296 213 77 C213 77.66 213 78.32 213 79 C213.55945313 79.24105469 214.11890625 79.48210937 214.6953125 79.73046875 C217.48153854 81.26525428 219.54264415 83.15089294 221.875 85.3125 C224.73351281 87.94267007 227.58473299 90.51976385 230.625 92.9375 C231.40875 93.618125 232.1925 94.29875 233 95 C233 95.66 233 96.32 233 97 C233.66 97 234.32 97 235 97 C236.70680947 98.62553283 238.37660195 100.29115995 240 102 C240.91523438 101.0615625 241.83046875 100.123125 242.7734375 99.15625 C243.97369391 97.93723959 245.17422919 96.71850371 246.375 95.5 C246.97828125 94.87996094 247.5815625 94.25992188 248.203125 93.62109375 C248.78320312 93.03457031 249.36328125 92.44804687 249.9609375 91.84375 C250.76217041 91.02680664 250.76217041 91.02680664 251.57958984 90.19335938 C253 89 253 89 255 89 C255 88.34 255 87.68 255 87 C255.66 87 256.32 87 257 87 C257 86.34 257 85.68 257 85 C258.54888502 83.58293498 260.16761534 82.24190504 261.8125 80.9375 C265.62325133 77.89664633 269.39534684 74.82705443 273.125 71.6875 C289.57752609 58.26447588 307.79423502 46.06731317 327 37 C328.26630384 36.36329959 329.53049709 35.72239057 330.79296875 35.078125 C377.22221828 11.3921373 427.9577167 0 480 0 C480 35.31 480 70.62 480 107 C470.1 107.66 460.2 108.32 450 109 C418.81152433 112.97705394 390.4612011 123.81868718 363.5 139.625 C362.58009277 140.16326416 361.66018555 140.70152832 360.71240234 141.25610352 C355.75272264 144.20743359 351.0860457 147.3058164 346.57617188 150.91162109 C345 152 345 152 343 152 C343 152.66 343 153.32 343 154 C341.3203125 155.5078125 341.3203125 155.5078125 339.125 157.125 C338.40570313 157.66382813 337.68640625 158.20265625 336.9453125 158.7578125 C335 160 335 160 333 160 C332.76410156 160.57492188 332.52820313 161.14984375 332.28515625 161.7421875 C330.71320727 164.50384862 328.8593935 166.07074917 326.4375 168.125 C321.81725244 172.15514337 317.78647384 176.46658337 313.8125 181.12890625 C313.214375 181.74636719 312.61625 182.36382812 312 183 C311.34 183 310.68 183 310 183 C309.731875 183.556875 309.46375 184.11375 309.1875 184.6875 C307.89877595 187.19712052 306.46052362 189.58713495 305 192 C305.63808594 192.75925781 306.27617187 193.51851562 306.93359375 194.30078125 C308.17302734 195.79158203 308.17302734 195.79158203 309.4375 197.3125 C310.26121094 198.29863281 311.08492188 199.28476562 311.93359375 200.30078125 C314 203 314 203 315 206 C316.31481359 206.70248661 317.65094209 207.36575638 319 208 C320.62817383 209.43286133 320.62817383 209.43286133 322.20703125 211.08203125 C322.79419922 211.68466797 323.38136719 212.28730469 323.98632812 212.90820312 C325.19230776 214.16577548 326.39804179 215.42358342 327.60351562 216.68164062 C330.56270204 219.71827575 333.44587398 222.42134573 336.94921875 224.82421875 C337.95597656 225.54222656 338.96273438 226.26023437 340 227 C340 227.66 340 228.32 340 229 C340.73927734 229.26353271 341.47855469 229.52706543 342.24023438 229.79858398 C344.99781124 230.99904716 346.85595415 232.30710063 349.15625 234.22265625 C354.01800478 238.10502861 359.13232736 241.30453189 364.5 244.4375 C365.46341309 245.00098145 366.42682617 245.56446289 367.41943359 246.14501953 C389.20657607 258.72937696 412.5970855 267.15541046 437.25 272.1875 C438.47396484 272.43826294 438.47396484 272.43826294 439.72265625 272.6940918 C450.2867338 274.76445473 460.84370287 275.2302168 471.58007812 275.60546875 C472.52431641 275.64285156 473.46855469 275.68023437 474.44140625 275.71875 C475.29420166 275.74904297 476.14699707 275.77933594 477.02563477 275.81054688 C479 276 479 276 480 277 C480.0953919 278.37876025 480.12188622 279.76236916 480.12025452 281.14442444 C480.12231651 282.48433693 480.12231651 282.48433693 480.12442017 283.85131836 C480.12082489 284.83890137 480.11722961 285.82648438 480.11352539 286.84399414 C480.11367142 287.87801865 480.11381744 288.91204315 480.1139679 289.97740173 C480.11326827 293.41334086 480.10547358 296.84922653 480.09765625 300.28515625 C480.09579225 302.66027293 480.09436826 305.03539 480.09336853 307.4105072 C480.08954197 313.67576144 480.0797105 319.94099267 480.06866455 326.20623779 C480.0584534 332.5938689 480.05387155 338.98150371 480.04882812 345.36914062 C480.03808836 357.91277026 480.02120127 370.45638391 480 383 C476.36719577 383.02023602 472.73440636 383.03227329 469.1015625 383.04296875 C468.08521729 383.04872925 467.06887207 383.05448975 466.02172852 383.0604248 C440.85861956 383.1158058 415.19105282 378.63775685 391.07958984 371.59863281 C389.07683184 371.02211689 387.0674085 370.4865772 385.05078125 369.9609375 C361.18737594 363.57247135 338.53732032 353.26882273 317.24609375 340.87109375 C314.27766481 339.16004987 311.27851886 337.53883466 308.25 335.9375 C302.86040785 333.01127311 297.96174938 329.59224919 293 326 C291.96359375 325.28199219 290.9271875 324.56398438 289.859375 323.82421875 C271.79713094 311.2812849 255.355367 296.71246856 240 281 C239.00033203 282.01126953 239.00033203 282.01126953 237.98046875 283.04296875 C234.48777494 286.53320032 230.90677639 289.92739585 227.3125 293.3125 C226.63638672 293.95767578 225.96027344 294.60285156 225.26367188 295.26757812 C224.61591797 295.87666016 223.96816406 296.48574219 223.30078125 297.11328125 C222.71466064 297.66798096 222.12854004 298.22268066 221.5246582 298.79418945 C220 300 220 300 218 300 C218 300.66 218 301.32 218 302 C194.85307305 324.26266232 163.67221985 342.71795765 134.21166992 355.04638672 C131.6821785 356.13703618 129.19454729 357.30604957 126.69921875 358.47265625 C121.06197958 361.04526773 115.32549182 363.08254168 109.4375 365 C107.86452148 365.51590698 107.86452148 365.51590698 106.25976562 366.04223633 C82.22294262 373.84980414 58.09335437 379.05963592 32.93579102 381.69042969 C28.95538644 382.11015135 24.97799241 382.55800084 21 383 C14.07 383 7.14 383 0 383 C0 347.69 0 312.38 0 276 C10.89 275.505 10.89 275.505 22 275 C41.97308965 272.63632075 60.59203303 268.47690393 79.5 261.625 C80.73999756 261.17898438 81.97999512 260.73296875 83.25756836 260.2734375 C91.58635765 257.17041316 99.29369449 253.41935909 107 249 C107.80711426 248.54012695 108.61422852 248.08025391 109.44580078 247.60644531 C123.73294388 239.325423 137.22338203 229.97629243 149.1796875 218.546875 C151 217 151 217 153 217 C153 216.34 153 215.68 153 215 C154.49609375 213.5625 154.49609375 213.5625 156.4375 212 C159.15188238 209.85474956 159.15188238 209.85474956 161 207 C161.66 207 162.32 207 163 207 C163.23332031 206.443125 163.46664062 205.88625 163.70703125 205.3125 C165.8611281 201.45985547 169.12556721 198.5732938 172.19921875 195.4375 C174.19455443 193.23379402 174.19455443 193.23379402 174.0234375 190.9765625 C172.67591077 188.37408722 170.95233991 186.4999987 168.9375 184.375 C165 180.20913884 165 180.20913884 165 178 C164.360625 177.731875 163.72125 177.46375 163.0625 177.1875 C161 176 161 176 160 173 C159.01 172.67 158.02 172.34 157 172 C157 171.34 157 170.68 157 170 C156.40703125 169.73960937 155.8140625 169.47921875 155.203125 169.2109375 C152.84946354 167.91725833 151.54336318 166.61110782 149.75 164.625 C124.89819666 139.22195518 88.9414695 122.63007907 55 114 C54.22269531 113.79890625 53.44539063 113.5978125 52.64453125 113.390625 C35.23563387 108.95600054 17.93335074 108.05490298 0 107 C0 71.69 0 36.38 0 0 Z " fill="#2952F9" transform="translate(16,64)"/>
</svg>
