<svg width="65" height="65" viewBox="0 0 65 65" fill="none" xmlns="http://www.w3.org/2000/svg"><mask id="a" fill="#fff"><path fill-rule="evenodd" clip-rule="evenodd" d="M14 1h37c7.18 0 13 5.82 13 13v37c0 7.18-5.82 13-13 13H14C6.82 64 1 58.18 1 51V14C1 6.82 6.82 1 14 1M0 14C0 6.268 6.268 0 14 0h37c7.732 0 14 6.268 14 14v37c0 7.732-6.268 14-14 14H14C6.268 65 0 58.732 0 51zm40 2a8 8 0 1 1-16 0 8 8 0 0 1 16 0m1 0a9 9 0 1 1-18 0 9 9 0 0 1 18 0m-8.485 16c5.12 0 9.822 2.248 13.514 6H46v14H19V38c3.693-3.752 8.395-6 13.515-6m0 1c4.648 0 8.992 1.994 12.474 5.38q.01.305.011.62v12H20V39h.01q-.01-.246-.01-.5v-.08C23.49 35.01 27.848 33 32.515 33"/></mask><path fill-rule="evenodd" clip-rule="evenodd" d="M14 1h37c7.18 0 13 5.82 13 13v37c0 7.18-5.82 13-13 13H14C6.82 64 1 58.18 1 51V14C1 6.82 6.82 1 14 1M0 14C0 6.268 6.268 0 14 0h37c7.732 0 14 6.268 14 14v37c0 7.732-6.268 14-14 14H14C6.268 65 0 58.732 0 51zm40 2a8 8 0 1 1-16 0 8 8 0 0 1 16 0m1 0a9 9 0 1 1-18 0 9 9 0 0 1 18 0m-8.485 16c5.12 0 9.822 2.248 13.514 6H46v14H19V38c3.693-3.752 8.395-6 13.515-6m0 1c4.648 0 8.992 1.994 12.474 5.38q.01.305.011.62v12H20V39h.01q-.01-.246-.01-.5v-.08C23.49 35.01 27.848 33 32.515 33" fill="#fff"/><path d="M46.03 38v1h2.387l-1.675-1.701zM46 38v-1h-1v1zm0 14v1h1v-1zm-27 0h-1v1h1zm0-13h-1zm0-1-.713-.701-.287.291V38zm25.989.38.999-.037-.015-.4-.287-.28zM45 51v1h1v-1zm-25 0h-1v1h1zm0-12v-1h-1v1zm.01 0v1h1.037l-.038-1.037zm-.01-.5-1-.003v.003zm0-.08-.699-.715-.3.293v.42zM51 0H14v2h37zm14 14c0-7.732-6.268-14-14-14v2c6.627 0 12 5.373 12 12zm0 37V14h-2v37zM51 65c7.732 0 14-6.268 14-14h-2c0 6.627-5.373 12-12 12zm-37 0h37v-2H14zM0 51c0 7.732 6.268 14 14 14v-2C7.373 63 2 57.627 2 51zm0-37v37h2V14zM14 0C6.268 0 0 6.268 0 14h2C2 7.373 7.373 2 14 2zm0-1C5.716-1-1 5.716-1 14h2C1 6.82 6.82 1 14 1zm37 0H14v2h37zm15 15c0-8.284-6.716-15-15-15v2c7.18 0 13 5.82 13 13zm0 37V14h-2v37zM51 66c8.284 0 15-6.716 15-15h-2c0 7.18-5.82 13-13 13zm-37 0h37v-2H14zM-1 51c0 8.284 6.716 15 15 15v-2C6.82 64 1 58.18 1 51zm0-37v37h2V14zm33 11a9 9 0 0 0 9-9h-2a7 7 0 0 1-7 7zm-9-9a9 9 0 0 0 9 9v-2a7 7 0 0 1-7-7zm9-9a9 9 0 0 0-9 9h2a7 7 0 0 1 7-7zm9 9a9 9 0 0 0-9-9v2a7 7 0 0 1 7 7zm-9 10c5.523 0 10-4.477 10-10h-2a8 8 0 0 1-8 8zM22 16c0 5.523 4.477 10 10 10v-2a8 8 0 0 1-8-8zM32 6c-5.523 0-10 4.477-10 10h2a8 8 0 0 1 8-8zm10 10c0-5.523-4.477-10-10-10v2a8 8 0 0 1 8 8zm4.742 21.299C42.892 33.385 37.942 31 32.515 31v2c4.812 0 9.267 2.11 12.802 5.701zM46 39h.03v-2H46zm1 0v-1h-2v1zm0 .43V39h-2v.43zM47 51V39.43h-2V51zm0 1v-1h-2v1zm-2 1h1v-2h-1zm-25 0h25v-2H20zm-1 0h1v-2h-1zm-1-2v1h2v-1zm0-12v12h2V39zm0-1v1h2v-1zm14.515-7c-5.428 0-10.377 2.385-14.228 6.299l1.426 1.402C23.247 35.11 27.703 33 32.515 33zm13.17 6.663C42.048 34.125 37.463 32 32.516 32v2c4.35 0 8.452 1.864 11.776 5.097zM46 39a18 18 0 0 0-.012-.657l-1.999.074q.01.287.011.583zm0 12V39h-2v12zm-26 1h25v-2H20zm-1-13v12h2V39zm1.01-1H20v2h.01zm-1.01.5q0 .272.01.537l1.999-.074A13 13 0 0 1 21 38.5zm0-.083v.08l2 .006v-.08zM32.515 32c-4.966 0-9.568 2.14-13.214 5.705l1.398 1.43C24.031 35.88 28.15 34 32.515 34z" fill="#fff" mask="url(#a)"/></svg>