<?xml version="1.0" encoding="UTF-8"?>
<!DOCTYPE svg PUBLIC "-//W3C//DTD SVG 1.1//EN" "http://www.w3.org/Graphics/SVG/1.1/DTD/svg11.dtd">
<svg xmlns="http://www.w3.org/2000/svg" version="1.1" width="10417px" height="10417px" style="shape-rendering:geometricPrecision; text-rendering:geometricPrecision; image-rendering:optimizeQuality; fill-rule:evenodd; clip-rule:evenodd" xmlns:xlink="http://www.w3.org/1999/xlink">
<g><path style="opacity:0.999" fill="#2953fd" d="M 1760.5,4379.5 C 1768.48,4395.33 1778.31,4410 1790,4423.5C 1809.42,4445.44 1831.58,4463.78 1856.5,4478.5C 1858.95,4509.23 1872.28,4534.06 1896.5,4553C 1907.69,4561.09 1919.02,4568.92 1930.5,4576.5C 1972.23,4645.61 2013.73,4714.95 2055,4784.5C 2092.97,4847.44 2134.63,4907.78 2180,4965.5C 2192,4979.5 2204,4993.5 2216,5007.5C 2217.45,5009.46 2219.28,5010.8 2221.5,5011.5C 2442.63,5308.7 2734.63,5499.54 3097.5,5584C 3191.88,5604.82 3287.21,5619.48 3383.5,5628C 3403.04,5630.04 3422.04,5634.37 3440.5,5641C 3459.5,5649.48 3471,5663.98 3475,5684.5C 3477.85,5699.03 3479.52,5713.69 3480,5728.5C 3479.96,5882.83 3479.96,6037.17 3480,6191.5C 3481.33,6236.16 3482,6280.83 3482,6325.5C 3481.12,6341.14 3476.45,6355.47 3468,6368.5C 3457.34,6381.58 3443.51,6389.08 3426.5,6391C 3417.2,6392.12 3407.86,6392.95 3398.5,6393.5C 3139.16,6379.66 2887.49,6328.5 2643.5,6240C 2329.13,6122.02 2053.3,5945.52 1816,5710.5C 1804.79,5694.96 1791.29,5681.79 1775.5,5671C 1763.34,5665.58 1750.67,5664.08 1737.5,5666.5C 1735.76,5631.66 1719.09,5607 1687.5,5592.5C 1674.97,5565.09 1660.13,5539.09 1643,5514.5C 1631.01,5499.84 1617.18,5487.34 1601.5,5477C 1597.78,5475.14 1594.11,5473.31 1590.5,5471.5C 1544.68,5397.22 1499.85,5322.22 1456,5246.5C 1422.11,5190.72 1384.78,5137.38 1344,5086.5C 1330.7,5070.87 1317.04,5055.54 1303,5040.5C 1300.23,5037.22 1297.07,5034.56 1293.5,5032.5C 1148.47,4826.3 961.469,4670.47 732.5,4565C 590.311,4501.11 442.311,4455.78 288.5,4429C 274.892,4427.07 261.225,4425.74 247.5,4425C 213.15,4424.06 178.817,4422.73 144.5,4421C 118.575,4420.02 93.9079,4414.02 70.5,4403C 50.4553,4390.77 37.2886,4373.27 31,4350.5C 26.2256,4332.48 24.0589,4314.15 24.5,4295.5C 26.0879,4257.71 29.2545,4220.04 34,4182.5C 36.5114,4146.37 37.0114,4110.21 35.5,4074C 36.2351,4016.83 36.9018,3959.67 37.5,3902.5C 37.0369,3844.46 35.5369,3786.46 33,3728.5C 34.3976,3680.61 58.8976,3654.61 106.5,3650.5C 351.402,3658.38 589.736,3702.21 821.5,3782C 1089.71,3876.37 1332.38,4013.37 1549.5,4193C 1600.36,4235.85 1650.02,4280.18 1698.5,4326C 1719.04,4344.04 1739.71,4361.88 1760.5,4379.5 Z"/></g>
<g><path style="opacity:0.998" fill="#2953fd" d="M 2804.5,4547.5 C 2800.72,4521.99 2791.88,4498.32 2778,4476.5C 2755.92,4438 2732.59,4400.33 2708,4363.5C 2641.66,4271.83 2563.16,4191.99 2472.5,4124C 2406.17,4074.83 2337.17,4029.66 2265.5,3988.5C 2479.44,3851.98 2711.11,3757.48 2960.5,3705C 3108.44,3673.99 3257.94,3655.49 3409,3649.5C 3427.44,3648.74 3444.61,3652.9 3460.5,3662C 3471.27,3671.45 3477.77,3683.28 3480,3697.5C 3481.44,3707.78 3482.27,3718.12 3482.5,3728.5C 3480.7,3824.82 3479.7,3921.16 3479.5,4017.5C 3480.25,4129.5 3480.75,4241.5 3481,4353.5C 3480.15,4385.41 3463.98,4403.58 3432.5,4408C 3304.96,4412.48 3179.63,4431.48 3056.5,4465C 2971.17,4488.61 2887.17,4516.11 2804.5,4547.5 Z"/></g>
<g><path style="opacity:0.999" fill="#2851f6" d="M 2265.5,3988.5 C 2337.17,4029.66 2406.17,4074.83 2472.5,4124C 2563.16,4191.99 2641.66,4271.83 2708,4363.5C 2732.59,4400.33 2755.92,4438 2778,4476.5C 2791.88,4498.32 2800.72,4521.99 2804.5,4547.5C 2772.18,4564.66 2739.51,4581.33 2706.5,4597.5C 2705.46,4557 2694.63,4519.34 2674,4484.5C 2662.5,4465.34 2649.84,4447.01 2636,4429.5C 2607,4394.83 2578,4360.17 2549,4325.5C 2514.33,4288.49 2477.5,4253.99 2438.5,4222C 2377.89,4174.36 2316.55,4127.7 2254.5,4082C 2234.31,4065.97 2214.31,4049.8 2194.5,4033.5C 2211.77,4008.68 2235.43,3993.68 2265.5,3988.5 Z"/></g>
<g><path style="opacity:0.998" fill="#274ff0" d="M 2194.5,4033.5 C 2214.31,4049.8 2234.31,4065.97 2254.5,4082C 2316.55,4127.7 2377.89,4174.36 2438.5,4222C 2477.5,4253.99 2514.33,4288.49 2549,4325.5C 2578,4360.17 2607,4394.83 2636,4429.5C 2649.84,4447.01 2662.5,4465.34 2674,4484.5C 2694.63,4519.34 2705.46,4557 2706.5,4597.5C 2682.84,4612.33 2658.84,4626.67 2634.5,4640.5C 2604.74,4568.97 2568.24,4501.31 2525,4437.5C 2407.65,4272.16 2248.48,4171.49 2047.5,4135.5C 2071.74,4110.56 2097.74,4087.73 2125.5,4067C 2146.63,4052.1 2169.63,4040.93 2194.5,4033.5 Z"/></g>
<g><path style="opacity:0.998" fill="#000000" d="M 4142.5,4090.5 C 4318.16,4092.76 4493.83,4093.1 4669.5,4091.5C 4732.17,4091.52 4794.84,4092.02 4857.5,4093C 4980.15,4096.66 5090.81,4134.32 5189.5,4206C 5304.45,4295.7 5369.62,4413.53 5385,4559.5C 5392.19,4655.56 5376.19,4747.56 5337,4835.5C 5322.69,4866.12 5307.36,4896.12 5291,4925.5C 5281.46,4947.44 5284.46,4967.44 5300,4985.5C 5317.36,5003.86 5335.03,5021.86 5353,5039.5C 5497.62,5201.53 5529.29,5383.86 5448,5586.5C 5370.14,5774.3 5229.97,5880.47 5027.5,5905C 4984.93,5908.85 4942.26,5910.51 4899.5,5910C 4646.5,5910.42 4393.5,5910.75 4140.5,5911C 4124.75,5910.48 4110.42,5905.82 4097.5,5897C 4086.77,5886.83 4080.6,5874.33 4079,5859.5C 4077.45,5848.05 4076.62,5836.55 4076.5,5825C 4077.97,5697.67 4078.97,5570.34 4079.5,5443C 4078.2,5148.5 4078.2,4854 4079.5,4559.5C 4079.08,4434.16 4078.08,4308.83 4076.5,4183.5C 4075.94,4164.4 4078.44,4145.73 4084,4127.5C 4089.83,4113 4100,4102.83 4114.5,4097C 4123.75,4093.86 4133.08,4091.69 4142.5,4090.5 Z M 4596.5,4408.5 C 4629.17,4408.5 4661.83,4408.5 4694.5,4408.5C 4730.17,4408.5 4765.83,4408.5 4801.5,4408.5C 4804.5,4408.5 4807.5,4408.5 4810.5,4408.5C 4815.74,4410.45 4821.4,4411.12 4827.5,4410.5C 4828.5,4410.5 4829.5,4410.5 4830.5,4410.5C 4833.68,4412.41 4837.35,4413.08 4841.5,4412.5C 4841.83,4412.5 4842.17,4412.5 4842.5,4412.5C 4845.34,4414.4 4848.67,4415.07 4852.5,4414.5C 4885.95,4423.56 4916.62,4438.56 4944.5,4459.5C 4956.17,4471.17 4967.83,4482.83 4979.5,4494.5C 4990.43,4509.46 4999.76,4525.46 5007.5,4542.5C 5012.1,4554.64 5016.43,4566.64 5020.5,4578.5C 5019.93,4582.33 5020.6,4585.66 5022.5,4588.5C 5022.5,4588.83 5022.5,4589.17 5022.5,4589.5C 5021.95,4593.01 5022.61,4596.01 5024.5,4598.5C 5024.5,4601.17 5024.5,4603.83 5024.5,4606.5C 5024.5,4620.5 5024.5,4634.5 5024.5,4648.5C 5024.5,4650.5 5024.5,4652.5 5024.5,4654.5C 5022.58,4658.03 5021.91,4662.03 5022.5,4666.5C 5020.6,4669.34 5019.93,4672.67 5020.5,4676.5C 5018.96,4678.03 5017.96,4680.03 5017.5,4682.5C 5016.52,4685.43 5016.18,4688.43 5016.5,4691.5C 5016.5,4691.83 5016.5,4692.17 5016.5,4692.5C 5010.93,4704.99 5005.27,4717.65 4999.5,4730.5C 4993.5,4739.83 4987.5,4749.17 4981.5,4758.5C 4969.17,4770.83 4956.83,4783.17 4944.5,4795.5C 4936.5,4800.83 4928.5,4806.17 4920.5,4811.5C 4911.17,4816.17 4901.83,4820.83 4892.5,4825.5C 4879.54,4829.71 4866.87,4834.04 4854.5,4838.5C 4851.3,4837.96 4848.64,4838.63 4846.5,4840.5C 4845.83,4840.5 4845.17,4840.5 4844.5,4840.5C 4840.67,4839.93 4837.34,4840.6 4834.5,4842.5C 4826.43,4842.51 4818.43,4843.18 4810.5,4844.5C 4740.83,4844.5 4671.17,4844.5 4601.5,4844.5C 4597.17,4844.5 4592.83,4844.5 4588.5,4844.5C 4572.87,4842.24 4556.87,4840.9 4540.5,4840.5C 4539.83,4840.5 4539.17,4840.5 4538.5,4840.5C 4529.4,4837.54 4520.07,4834.54 4510.5,4831.5C 4504.75,4829.59 4499.41,4826.92 4494.5,4823.5C 4488.17,4817.17 4481.83,4810.83 4475.5,4804.5C 4470.59,4796.44 4467.26,4787.77 4465.5,4778.5C 4464.94,4776.67 4463.94,4775.34 4462.5,4774.5C 4462.5,4773.83 4462.5,4773.17 4462.5,4772.5C 4463.04,4769.3 4462.37,4766.64 4460.5,4764.5C 4460.5,4763.5 4460.5,4762.5 4460.5,4761.5C 4461.08,4757.35 4460.41,4753.68 4458.5,4750.5C 4458.5,4747.83 4458.5,4745.17 4458.5,4742.5C 4459.13,4734.76 4458.46,4727.42 4456.5,4720.5C 4456.5,4714.83 4456.5,4709.17 4456.5,4703.5C 4456.1,4637.48 4456.77,4571.48 4458.5,4505.5C 4458.5,4503.17 4458.5,4500.83 4458.5,4498.5C 4460.98,4491.29 4462.32,4483.62 4462.5,4475.5C 4462.5,4475.17 4462.5,4474.83 4462.5,4474.5C 4466.19,4465.11 4470.52,4455.77 4475.5,4446.5C 4481.83,4440.17 4488.17,4433.83 4494.5,4427.5C 4502.45,4423.21 4510.45,4419.54 4518.5,4416.5C 4529.57,4415.33 4540.24,4413.33 4550.5,4410.5C 4553.5,4410.5 4556.5,4410.5 4559.5,4410.5C 4572.21,4411.15 4584.55,4410.48 4596.5,4408.5 Z M 4854.5,5156.5 C 4859.17,5156.5 4863.83,5156.5 4868.5,5156.5C 4876.77,5158.47 4885.44,5159.14 4894.5,5158.5C 4895.17,5158.5 4895.83,5158.5 4896.5,5158.5C 4905.44,5160.47 4914.77,5161.14 4924.5,5160.5C 4925.83,5160.5 4927.17,5160.5 4928.5,5160.5C 4930.64,5162.37 4933.3,5163.04 4936.5,5162.5C 4937.17,5162.5 4937.83,5162.5 4938.5,5162.5C 4941.34,5164.4 4944.67,5165.07 4948.5,5164.5C 4950.03,5166.04 4952.03,5167.04 4954.5,5167.5C 4957.09,5168.48 4959.75,5168.81 4962.5,5168.5C 4984.01,5175.92 5004.68,5185.58 5024.5,5197.5C 5052.92,5217.25 5076.59,5241.59 5095.5,5270.5C 5100.17,5279.83 5104.83,5289.17 5109.5,5298.5C 5114.19,5312.65 5118.52,5326.65 5122.5,5340.5C 5121.91,5344.97 5122.58,5348.97 5124.5,5352.5C 5124.5,5352.83 5124.5,5353.17 5124.5,5353.5C 5124.5,5366.5 5124.5,5379.5 5124.5,5392.5C 5124.5,5395.17 5124.5,5397.83 5124.5,5400.5C 5122.6,5403.34 5121.93,5406.67 5122.5,5410.5C 5122.5,5411.83 5122.5,5413.17 5122.5,5414.5C 5120.66,5416.28 5119.99,5418.61 5120.5,5421.5C 5120.5,5421.83 5120.5,5422.17 5120.5,5422.5C 5118.96,5424.03 5117.96,5426.03 5117.5,5428.5C 5116.51,5431.77 5116.18,5435.1 5116.5,5438.5C 5110.69,5454.13 5103.69,5469.46 5095.5,5484.5C 5090.17,5492.5 5084.83,5500.5 5079.5,5508.5C 5064.37,5524.97 5048.03,5539.97 5030.5,5553.5C 5014.63,5562.43 4998.63,5570.77 4982.5,5578.5C 4979.92,5578.03 4977.92,5578.69 4976.5,5580.5C 4971.37,5580.94 4966.7,5582.28 4962.5,5584.5C 4959.3,5583.96 4956.64,5584.63 4954.5,5586.5C 4951.1,5586.18 4947.77,5586.51 4944.5,5587.5C 4941.38,5587.92 4938.72,5588.92 4936.5,5590.5C 4935.17,5590.5 4933.83,5590.5 4932.5,5590.5C 4821.86,5592.42 4711.19,5593.09 4600.5,5592.5C 4599.83,5592.5 4599.17,5592.5 4598.5,5592.5C 4591.58,5590.54 4584.24,5589.87 4576.5,5590.5C 4575.83,5590.5 4575.17,5590.5 4574.5,5590.5C 4568.93,5588.55 4562.93,5587.88 4556.5,5588.5C 4555.83,5588.5 4555.17,5588.5 4554.5,5588.5C 4541.84,5585.75 4529.17,5582.08 4516.5,5577.5C 4491.52,5565.53 4474.85,5546.53 4466.5,5520.5C 4467.04,5517.3 4466.37,5514.64 4464.5,5512.5C 4464.4,5505.34 4463.07,5498.68 4460.5,5492.5C 4460.5,5491.5 4460.5,5490.5 4460.5,5489.5C 4461.12,5483.4 4460.45,5477.74 4458.5,5472.5C 4456.75,5400.18 4456.08,5327.85 4456.5,5255.5C 4457.74,5247.22 4458.41,5238.89 4458.5,5230.5C 4461.09,5222.16 4463.42,5213.5 4465.5,5204.5C 4470.84,5190.5 4479.84,5179.5 4492.5,5171.5C 4503.77,5166.86 4515.11,5163.2 4526.5,5160.5C 4527.17,5160.5 4527.83,5160.5 4528.5,5160.5C 4536.24,5161.13 4543.58,5160.46 4550.5,5158.5C 4651.83,5158 4753.17,5157.33 4854.5,5156.5 Z"/></g>
<g><path style="opacity:0.996" fill="#030403" d="M 5822.5,4091.5 C 5860.17,4091.33 5897.83,4091.5 5935.5,4092C 5954.43,4091.72 5973.09,4093.72 5991.5,4098C 6005.62,4101.79 6015.79,4110.29 6022,4123.5C 6029.17,4143.17 6032.84,4163.51 6033,4184.5C 6035.28,4251.52 6034.95,4318.52 6032,4385.5C 6030.79,4403 6026.46,4419.67 6019,4435.5C 6011.96,4446.54 6002.46,4454.71 5990.5,4460C 5969.16,4467.45 5947.16,4471.45 5924.5,4472C 5860.83,4473.96 5797.16,4473.96 5733.5,4472C 5718.74,4471.14 5704.74,4467.48 5691.5,4461C 5680.81,4454.47 5673.31,4445.31 5669,4433.5C 5665.07,4422.46 5662.41,4411.13 5661,4399.5C 5658.65,4379.9 5657.32,4360.24 5657,4340.5C 5656.33,4289.83 5656.33,4239.17 5657,4188.5C 5656.98,4169.96 5659.98,4151.96 5666,4134.5C 5674.93,4116.27 5689.43,4105.1 5709.5,4101C 5721.67,4098.03 5734.01,4096.03 5746.5,4095C 5771.97,4093.32 5797.3,4092.15 5822.5,4091.5 Z"/></g>
<g><path style="opacity:0.999" fill="#264dea" d="M 2047.5,4135.5 C 2248.48,4171.49 2407.65,4272.16 2525,4437.5C 2568.24,4501.31 2604.74,4568.97 2634.5,4640.5C 2610.72,4657.23 2586.38,4673.23 2561.5,4688.5C 2497.75,4538.17 2398.42,4417.01 2263.5,4325C 2175.63,4266.9 2081.63,4220.73 1981.5,4186.5C 1997.03,4161.32 2019.03,4144.32 2047.5,4135.5 Z"/></g>
<g><path style="opacity:0.997" fill="#000000" d="M 10057.5,4146.5 C 10108.5,4148.57 10159.5,4149.91 10210.5,4150.5C 10272.2,4149.19 10333.8,4148.86 10395.5,4149.5C 10405.7,4170.2 10404.6,4190.2 10392,4209.5C 10382.9,4220.88 10374.3,4232.55 10366,4244.5C 10220.9,4483.69 10072.6,4720.69 9921,4955.5C 9907.02,4978.6 9899.19,5003.6 9897.5,5030.5C 9899.41,5057.06 9907.24,5081.73 9921,5104.5C 10067.8,5332.3 10211.8,5561.97 10353,5793.5C 10365,5810.83 10377,5828.17 10389,5845.5C 10401.2,5865.42 10407.7,5887.09 10408.5,5910.5C 10345.3,5910.01 10282.2,5909.67 10219,5909.5C 10156.7,5909.33 10094.3,5910 10032,5911.5C 10009.4,5911.85 9990.37,5903.85 9975,5887.5C 9970.28,5881.78 9965.95,5875.78 9962,5869.5C 9861.39,5706.41 9760.23,5543.75 9658.5,5381.5C 9578.5,5506.16 9500,5631.82 9423,5758.5C 9408,5784.5 9393,5810.5 9378,5836.5C 9365.69,5856.48 9350.19,5873.65 9331.5,5888C 9309.71,5902.37 9285.71,5910.37 9259.5,5912C 9201.7,5909.92 9143.86,5908.75 9086,5908.5C 9028.66,5908.76 8971.33,5909.43 8914,5910.5C 8906.5,5910.17 8899,5909.83 8891.5,5909.5C 9001.67,5731.83 9111.83,5554.17 9222,5376.5C 9279.27,5285.57 9336.94,5194.9 9395,5104.5C 9409.48,5081.39 9417.31,5056.23 9418.5,5029C 9416.97,5001.4 9408.8,4975.9 9394,4952.5C 9333.21,4859.04 9273.21,4765.04 9214,4670.5C 9106.63,4496.92 8999.13,4323.42 8891.5,4150C 9029.83,4148.02 9168.17,4148.02 9306.5,4150C 9321.38,4152.02 9333.55,4158.86 9343,4170.5C 9354.09,4187.67 9364.42,4205.34 9374,4223.5C 9469.25,4374.33 9564.25,4525.33 9659,4676.5C 9735.79,4555.7 9811.79,4434.37 9887,4312.5C 9906.25,4280.33 9925.25,4248 9944,4215.5C 9957.12,4194.71 9973.95,4177.55 9994.5,4164C 10014.4,4153.62 10035.4,4147.79 10057.5,4146.5 Z"/></g>
<g><path style="opacity:0.998" fill="#254be5" d="M 1981.5,4186.5 C 2081.63,4220.73 2175.63,4266.9 2263.5,4325C 2398.42,4417.01 2497.75,4538.17 2561.5,4688.5C 2537.47,4706.52 2513.14,4724.19 2488.5,4741.5C 2453.81,4671.71 2413.31,4605.71 2367,4543.5C 2307.71,4465.52 2235.54,4402.69 2150.5,4355C 2064.53,4310.51 1973.2,4285.67 1876.5,4280.5C 1902.72,4239.27 1937.72,4207.94 1981.5,4186.5 Z"/></g>
<g><path style="opacity:0.999" fill="#2449df" d="M 1876.5,4280.5 C 1973.2,4285.67 2064.53,4310.51 2150.5,4355C 2235.54,4402.69 2307.71,4465.52 2367,4543.5C 2413.31,4605.71 2453.81,4671.71 2488.5,4741.5C 2465.05,4760.4 2441.39,4779.06 2417.5,4797.5C 2374.77,4697.17 2314.1,4609.34 2235.5,4534C 2155.88,4462.16 2064.55,4409.83 1961.5,4377C 1927.09,4366.73 1892.42,4357.4 1857.5,4349C 1844.54,4344.21 1834.88,4335.71 1828.5,4323.5C 1836.96,4300.7 1852.96,4286.37 1876.5,4280.5 Z"/></g>
<g><path style="opacity:0.999" fill="#2347d8" d="M 1828.5,4323.5 C 1834.88,4335.71 1844.54,4344.21 1857.5,4349C 1892.42,4357.4 1927.09,4366.73 1961.5,4377C 2064.55,4409.83 2155.88,4462.16 2235.5,4534C 2314.1,4609.34 2374.77,4697.17 2417.5,4797.5C 2409.75,4813.44 2399.09,4827.27 2385.5,4839C 2372.64,4849.93 2358.64,4859.1 2343.5,4866.5C 2319.06,4806.95 2288.9,4750.62 2253,4697.5C 2221.11,4651.94 2183.28,4611.77 2139.5,4577C 2107.06,4551.89 2074.06,4527.56 2040.5,4504C 2014.71,4486.95 1986.71,4474.95 1956.5,4468C 1922.13,4461.81 1888.8,4465.31 1856.5,4478.5C 1831.58,4463.78 1809.42,4445.44 1790,4423.5C 1778.31,4410 1768.48,4395.33 1760.5,4379.5C 1782.89,4360.43 1805.56,4341.77 1828.5,4323.5 Z"/></g>
<g><path style="opacity:0.235" fill="#ededed" d="M 4801.5,4408.5 C 4765.83,4408.5 4730.17,4408.5 4694.5,4408.5C 4716.17,4407.75 4738,4407.08 4760,4406.5C 4774,4407.02 4787.83,4407.69 4801.5,4408.5 Z"/></g>
<g><path style="opacity:0.213" fill="#dfdfdf" d="M 4596.5,4408.5 C 4584.55,4410.48 4572.21,4411.15 4559.5,4410.5C 4571.64,4409.14 4583.98,4408.47 4596.5,4408.5 Z"/></g>
<g><path style="opacity:0.186" fill="#ececec" d="M 4810.5,4408.5 C 4816.35,4408.82 4822.02,4409.48 4827.5,4410.5C 4821.4,4411.12 4815.74,4410.45 4810.5,4408.5 Z"/></g>
<g><path style="opacity:0.163" fill="#eeeeee" d="M 4830.5,4410.5 C 4834.36,4410.81 4838.03,4411.48 4841.5,4412.5C 4837.35,4413.08 4833.68,4412.41 4830.5,4410.5 Z"/></g>
<g><path style="opacity:0.171" fill="#e5e5e5" d="M 4842.5,4412.5 C 4846.08,4412.55 4849.41,4413.22 4852.5,4414.5C 4848.67,4415.07 4845.34,4414.4 4842.5,4412.5 Z"/></g>
<g><path style="opacity:0.147" fill="#dbdbdb" d="M 4550.5,4410.5 C 4540.24,4413.33 4529.57,4415.33 4518.5,4416.5C 4528.83,4413.37 4539.49,4411.37 4550.5,4410.5 Z"/></g>
<g><path style="opacity:0.18" fill="#ececec" d="M 4518.5,4416.5 C 4510.45,4419.54 4502.45,4423.21 4494.5,4427.5C 4488.17,4433.83 4481.83,4440.17 4475.5,4446.5C 4470.52,4455.77 4466.19,4465.11 4462.5,4474.5C 4467.99,4442.35 4486.65,4423.02 4518.5,4416.5 Z"/></g>
<g><path style="opacity:0.174" fill="#f1f1f1" d="M 4852.5,4414.5 C 4915.22,4428.08 4963.39,4462.08 4997,4516.5C 5008.29,4535.89 5016.13,4556.56 5020.5,4578.5C 5016.43,4566.64 5012.1,4554.64 5007.5,4542.5C 4999.76,4525.46 4990.43,4509.46 4979.5,4494.5C 4967.83,4482.83 4956.17,4471.17 4944.5,4459.5C 4916.62,4438.56 4885.95,4423.56 4852.5,4414.5 Z"/></g>
<g><path style="opacity:0.008" fill="#fcfdfc" d="M 4879.5,4453.5 C 4884.06,4455.06 4887.4,4458.06 4889.5,4462.5C 4881.52,4464.85 4878.18,4461.85 4879.5,4453.5 Z"/></g>
<g><path style="opacity:0.999" fill="#2245d3" d="M 2343.5,4866.5 C 2330.8,4890.71 2314.13,4911.88 2293.5,4930C 2286.61,4935.27 2279.28,4939.77 2271.5,4943.5C 2249.73,4870.28 2217.89,4801.94 2176,4738.5C 2116,4653.07 2034.83,4598.74 1932.5,4575.5C 1931.58,4575.54 1930.92,4575.88 1930.5,4576.5C 1919.02,4568.92 1907.69,4561.09 1896.5,4553C 1872.28,4534.06 1858.95,4509.23 1856.5,4478.5C 1888.8,4465.31 1922.13,4461.81 1956.5,4468C 1986.71,4474.95 2014.71,4486.95 2040.5,4504C 2074.06,4527.56 2107.06,4551.89 2139.5,4577C 2183.28,4611.77 2221.11,4651.94 2253,4697.5C 2288.9,4750.62 2319.06,4806.95 2343.5,4866.5 Z"/></g>
<g><path style="opacity:0.156" fill="#d1d1d1" d="M 4462.5,4475.5 C 4462.32,4483.62 4460.98,4491.29 4458.5,4498.5C 4458.92,4490.55 4460.25,4482.88 4462.5,4475.5 Z"/></g>
<g><path style="opacity:0.008" fill="#fcfdfc" d="M 4943.5,4485.5 C 4948.06,4487.06 4951.4,4490.06 4953.5,4494.5C 4945.52,4496.85 4942.18,4493.85 4943.5,4485.5 Z"/></g>
<g><path style="opacity:0.005" fill="#fcfdfc" d="M 4493.5,4487.5 C 4494.69,4487.97 4495.36,4488.97 4495.5,4490.5C 4494.38,4494.88 4491.71,4496.21 4487.5,4494.5C 4488.83,4491.51 4490.83,4489.17 4493.5,4487.5 Z"/></g>
<g><path style="opacity:0.296" fill="#e6e6e6" d="M 4458.5,4505.5 C 4456.77,4571.48 4456.1,4637.48 4456.5,4703.5C 4455.33,4645.67 4455.17,4587.67 4456,4529.5C 4456.32,4521.3 4457.15,4513.3 4458.5,4505.5 Z"/></g>
<g><path style="opacity:0.008" fill="#fcfdfc" d="M 4975.5,4549.5 C 4980.06,4551.06 4983.4,4554.06 4985.5,4558.5C 4977.52,4560.85 4974.18,4557.85 4975.5,4549.5 Z"/></g>
<g><path style="opacity:0.999" fill="#2244ce" d="M 2271.5,4943.5 C 2254.83,4966.17 2238.17,4988.83 2221.5,5011.5C 2219.28,5010.8 2217.45,5009.46 2216,5007.5C 2204,4993.5 2192,4979.5 2180,4965.5C 2134.63,4907.78 2092.97,4847.44 2055,4784.5C 2013.73,4714.95 1972.23,4645.61 1930.5,4576.5C 1930.92,4575.88 1931.58,4575.54 1932.5,4575.5C 2034.83,4598.74 2116,4653.07 2176,4738.5C 2217.89,4801.94 2249.73,4870.28 2271.5,4943.5 Z"/></g>
<g><path style="opacity:0.147" fill="#d9d9d9" d="M 5020.5,4578.5 C 5022.01,4581.54 5022.68,4584.88 5022.5,4588.5C 5020.6,4585.66 5019.93,4582.33 5020.5,4578.5 Z"/></g>
<g><path style="opacity:0.122" fill="#cbcbcb" d="M 5022.5,4589.5 C 5023.66,4592.27 5024.32,4595.27 5024.5,4598.5C 5022.61,4596.01 5021.95,4593.01 5022.5,4589.5 Z"/></g>
<g><path style="opacity:0.998" fill="#000000" d="M 6456.5,4605.5 C 6491.51,4602.43 6525.17,4607.6 6557.5,4621C 6574.45,4629.31 6589.45,4640.31 6602.5,4654C 6609.88,4656 6617.21,4655.66 6624.5,4653C 6735.91,4611.69 6850.25,4600.69 6967.5,4620C 7084.54,4640.9 7180.37,4697.07 7255,4788.5C 7304.49,4854.91 7336.16,4929.24 7350,5011.5C 7358.98,5065.15 7361.98,5119.15 7359,5173.5C 7355.71,5261.97 7354.21,5350.47 7354.5,5439C 7355.2,5570.18 7356.7,5701.35 7359,5832.5C 7360.87,5882.96 7336.7,5909.46 7286.5,5912C 7224.43,5913.46 7162.43,5912.13 7100.5,5908C 7079.46,5906.26 7059.13,5901.59 7039.5,5894C 7017.3,5884.13 7002.46,5867.63 6995,5844.5C 6989.08,5826.63 6985.41,5808.29 6984,5789.5C 6982.42,5771.53 6981.42,5753.53 6981,5735.5C 6980.67,5545.83 6980.33,5356.17 6980,5166.5C 6981.6,5114.91 6970.6,5066.24 6947,5020.5C 6913.71,4964.97 6864.55,4934.14 6799.5,4928C 6702.81,4922.4 6636.31,4964.24 6600,5053.5C 6588.99,5084.21 6582.99,5115.88 6582,5148.5C 6578.57,5373.01 6578.74,5597.51 6582.5,5822C 6582.14,5835.91 6580.97,5849.74 6579,5863.5C 6575,5885.83 6562.17,5900.33 6540.5,5907C 6534.25,5908.72 6527.91,5910.05 6521.5,5911C 6468.52,5912.62 6415.52,5912.96 6362.5,5912C 6333.71,5911.69 6305.38,5908.02 6277.5,5901C 6244.09,5891.25 6223.25,5869.42 6215,5835.5C 6207.59,5801.92 6203.92,5767.92 6204,5733.5C 6203.05,5473.33 6203.55,5213.16 6205.5,4953C 6205.98,4868.94 6203.98,4784.94 6199.5,4701C 6199.44,4681.28 6202.61,4662.11 6209,4643.5C 6219.19,4621.64 6236.36,4609.48 6260.5,4607C 6283.39,4605.51 6306.06,4607.17 6328.5,4612C 6348.5,4613.92 6368.5,4613.92 6388.5,4612C 6411.32,4609.88 6433.99,4607.72 6456.5,4605.5 Z"/></g>
<g><path style="opacity:0.997" fill="#000100" d="M 5799.5,4606.5 C 5838.2,4605.96 5876.87,4606.79 5915.5,4609C 5937.38,4610.44 5958.38,4615.44 5978.5,4624C 6003.57,4638.23 6018.74,4659.73 6024,4688.5C 6028.31,4708.95 6030.97,4729.62 6032,4750.5C 6033.01,4772.16 6033.68,4793.82 6034,4815.5C 6033.67,5077.83 6033.67,5340.17 6034,5602.5C 6034.68,5679.84 6035.35,5757.17 6036,5834.5C 6035.69,5849.73 6032.69,5864.4 6027,5878.5C 6021.05,5890.45 6011.88,5898.95 5999.5,5904C 5992.05,5906.78 5984.38,5908.78 5976.5,5910C 5959.72,5911.91 5942.89,5912.74 5926,5912.5C 5887.49,5912.04 5848.99,5911.2 5810.5,5910C 5779.37,5909.65 5749.04,5904.65 5719.5,5895C 5693.43,5883.59 5676.6,5864.09 5669,5836.5C 5663.43,5814.84 5660.1,5792.84 5659,5770.5C 5658,5751.51 5657.33,5732.51 5657,5713.5C 5656.33,5463.83 5656.5,5214.17 5657.5,4964.5C 5657.35,4866.49 5656.85,4768.49 5656,4670.5C 5657.83,4638.36 5674.33,4618.86 5705.5,4612C 5712.42,4610.46 5719.42,4609.46 5726.5,4609C 5750.99,4608.14 5775.33,4607.31 5799.5,4606.5 Z"/></g>
<g><path style="opacity:0.998" fill="#000000" d="M 8428.5,4609.5 C 8524.5,4610.83 8620.5,4610.83 8716.5,4609.5C 8732.86,4609.44 8749.19,4609.94 8765.5,4611C 8775.74,4611.97 8785.07,4615.3 8793.5,4621C 8800.65,4627.94 8803.98,4636.44 8803.5,4646.5C 8800.07,4663.84 8797.73,4681.34 8796.5,4699C 8798.75,4730.36 8802.59,4761.52 8808,4792.5C 8820.45,4860.1 8796.28,4909.27 8735.5,4940C 8728.86,4946.88 8727.69,4954.72 8732,4963.5C 8738.41,4975.33 8745.08,4987 8752,4998.5C 8781.58,5073.08 8798.92,5150.41 8804,5230.5C 8809.66,5354.51 8782,5470.51 8721,5578.5C 8707.16,5603.52 8691.83,5627.52 8675,5650.5C 8663.61,5669.31 8663.94,5687.97 8676,5706.5C 8731.12,5782.45 8767.46,5866.78 8785,5959.5C 8814.16,6155.66 8760.49,6324.99 8624,6467.5C 8503.21,6585.62 8358.04,6650.79 8188.5,6663C 8011.79,6668.55 7856.13,6614.88 7721.5,6502C 7626.31,6420.18 7561.48,6318.68 7527,6197.5C 7513.69,6150.35 7507.69,6102.35 7509,6053.5C 7511.75,6027.09 7526.25,6012.26 7552.5,6009C 7558.17,6008.83 7563.83,6008.67 7569.5,6008.5C 7587.85,6009.39 7606.18,6010.56 7624.5,6012C 7646.83,6012.67 7669.17,6012.67 7691.5,6012C 7715.61,6009.61 7739.78,6008.11 7764,6007.5C 7799.26,6005.18 7830.76,6014.68 7858.5,6036C 7875.15,6051.65 7888.32,6069.82 7898,6090.5C 7905.92,6108.59 7913.25,6126.93 7920,6145.5C 7948.18,6204.01 7992.68,6244.85 8053.5,6268C 8137.47,6297.39 8219.13,6292.06 8298.5,6252C 8347.99,6224.51 8385.15,6185.35 8410,6134.5C 8438.71,6063.66 8422.55,6005.5 8361.5,5960C 8326.11,5937.2 8287.44,5922.86 8245.5,5917C 8204.99,5912.03 8164.33,5909.36 8123.5,5909C 7921.03,5896.03 7757.86,5810.2 7634,5651.5C 7532.7,5510.86 7490.37,5353.86 7507,5180.5C 7530.52,5004.22 7611.35,4861.06 7749.5,4751C 7852.66,4672.13 7969.33,4627.13 8099.5,4616C 8151.1,4612.11 8202.77,4610.77 8254.5,4612C 8312.5,4613.47 8370.5,4614.63 8428.5,4615.5C 8428.5,4613.5 8428.5,4611.5 8428.5,4609.5 Z M 8128.5,4988.5 C 8147.17,4988.5 8165.83,4988.5 8184.5,4988.5C 8187.34,4990.4 8190.67,4991.07 8194.5,4990.5C 8205.09,4993.9 8216.09,4996.56 8227.5,4998.5C 8227.83,4998.5 8228.17,4998.5 8228.5,4998.5C 8229.34,4999.94 8230.67,5000.94 8232.5,5001.5C 8265.86,5012.5 8295.86,5029.17 8322.5,5051.5C 8340.97,5068.63 8357.97,5086.96 8373.5,5106.5C 8393.43,5136.35 8408.43,5168.35 8418.5,5202.5C 8418.5,5202.83 8418.5,5203.17 8418.5,5203.5C 8418.73,5210.31 8420.06,5216.64 8422.5,5222.5C 8423.31,5239.49 8423.98,5256.49 8424.5,5273.5C 8424.5,5275.17 8424.5,5276.83 8424.5,5278.5C 8422.55,5284.07 8421.88,5290.07 8422.5,5296.5C 8422.5,5297.17 8422.5,5297.83 8422.5,5298.5C 8420.61,5300.99 8419.95,5303.99 8420.5,5307.5C 8420.5,5307.83 8420.5,5308.17 8420.5,5308.5C 8418.6,5311.34 8417.93,5314.67 8418.5,5318.5C 8411.04,5342.5 8401.37,5365.83 8389.5,5388.5C 8381.33,5401.51 8372.66,5414.18 8363.5,5426.5C 8348.5,5441.5 8333.5,5456.5 8318.5,5471.5C 8301.51,5484.33 8283.51,5495.67 8264.5,5505.5C 8248,5512.88 8231.34,5519.21 8214.5,5524.5C 8208.64,5524.63 8203.31,5525.96 8198.5,5528.5C 8197.17,5528.5 8195.83,5528.5 8194.5,5528.5C 8190.67,5527.93 8187.34,5528.6 8184.5,5530.5C 8183.5,5530.5 8182.5,5530.5 8181.5,5530.5C 8114.84,5535.42 8054.5,5518.42 8000.5,5479.5C 7946.66,5438.78 7909.33,5386.45 7888.5,5322.5C 7888.5,5322.17 7888.5,5321.83 7888.5,5321.5C 7889.01,5318.61 7888.34,5316.28 7886.5,5314.5C 7886.82,5310.45 7886.49,5306.45 7885.5,5302.5C 7885.04,5300.03 7884.04,5298.03 7882.5,5296.5C 7880.97,5278.54 7880.3,5260.54 7880.5,5242.5C 7882.45,5236.93 7883.12,5230.93 7882.5,5224.5C 7882.5,5223.83 7882.5,5223.17 7882.5,5222.5C 7884.4,5219.66 7885.07,5216.33 7884.5,5212.5C 7886.34,5210.72 7887.01,5208.39 7886.5,5205.5C 7886.5,5205.17 7886.5,5204.83 7886.5,5204.5C 7906.63,5135.36 7945.96,5079.69 8004.5,5037.5C 8035.57,5016.25 8069.57,5001.58 8106.5,4993.5C 8108.97,4993.04 8110.97,4992.04 8112.5,4990.5C 8113.5,4990.5 8114.5,4990.5 8115.5,4990.5C 8120.29,4991.1 8124.63,4990.43 8128.5,4988.5 Z"/></g>
<g><path style="opacity:0.584" fill="#9c9c9c" d="M 5024.5,4606.5 C 5026,4613.27 5026.67,4620.27 5026.5,4627.5C 5026.67,4634.73 5026,4641.73 5024.5,4648.5C 5024.5,4634.5 5024.5,4620.5 5024.5,4606.5 Z"/></g>
<g><path style="opacity:0.144" fill="#e5e5e5" d="M 5024.5,4654.5 C 5024.04,4658.66 5023.38,4662.66 5022.5,4666.5C 5021.91,4662.03 5022.58,4658.03 5024.5,4654.5 Z"/></g>
<g><path style="opacity:0.171" fill="#e5e5e5" d="M 5022.5,4666.5 C 5022.45,4670.08 5021.78,4673.41 5020.5,4676.5C 5019.93,4672.67 5020.6,4669.34 5022.5,4666.5 Z"/></g>
<g><path style="opacity:0.172" fill="#e9e9e9" d="M 5020.5,4676.5 C 5019.94,4681.82 5018.61,4686.82 5016.5,4691.5C 5016.18,4688.43 5016.52,4685.43 5017.5,4682.5C 5017.96,4680.03 5018.96,4678.03 5020.5,4676.5 Z"/></g>
<g><path style="opacity:0.011" fill="#fcfdfc" d="M 4985.5,4718.5 C 4989.24,4719.65 4989.41,4721.31 4986,4723.5C 4983.5,4726 4981,4728.5 4978.5,4731C 4977.06,4731.78 4975.72,4731.61 4974.5,4730.5C 4975.09,4727.5 4975.75,4724.5 4976.5,4721.5C 4979.43,4720.02 4982.43,4719.02 4985.5,4718.5 Z"/></g>
<g><path style="opacity:0.203" fill="#eeeeee" d="M 4456.5,4720.5 C 4458.46,4727.42 4459.13,4734.76 4458.5,4742.5C 4457.46,4735.35 4456.8,4728.01 4456.5,4720.5 Z"/></g>
<g><path style="opacity:0.138" fill="#e0e0e0" d="M 4458.5,4750.5 C 4460.41,4753.68 4461.08,4757.35 4460.5,4761.5C 4459.69,4757.98 4459.03,4754.31 4458.5,4750.5 Z"/></g>
<g><path style="opacity:0.011" fill="#fcfdfc" d="M 4953.5,4750.5 C 4957.24,4751.65 4957.41,4753.31 4954,4755.5C 4951.5,4758 4949,4760.5 4946.5,4763C 4945.06,4763.78 4943.72,4763.61 4942.5,4762.5C 4943.09,4759.5 4943.75,4756.5 4944.5,4753.5C 4947.43,4752.02 4950.43,4751.02 4953.5,4750.5 Z"/></g>
<g><path style="opacity:0.008" fill="#fcfdfc" d="M 4485.5,4751.5 C 4493.85,4750.18 4496.85,4753.52 4494.5,4761.5C 4490.06,4759.4 4487.06,4756.06 4485.5,4751.5 Z"/></g>
<g><path style="opacity:0.187" fill="#efefef" d="M 5016.5,4692.5 C 4996.1,4758.74 4953.43,4804.24 4888.5,4829C 4877.34,4832.89 4866.01,4836.06 4854.5,4838.5C 4866.87,4834.04 4879.54,4829.71 4892.5,4825.5C 4901.83,4820.83 4911.17,4816.17 4920.5,4811.5C 4928.5,4806.17 4936.5,4800.83 4944.5,4795.5C 4956.83,4783.17 4969.17,4770.83 4981.5,4758.5C 4987.5,4749.17 4993.5,4739.83 4999.5,4730.5C 5005.27,4717.65 5010.93,4704.99 5016.5,4692.5 Z"/></g>
<g><path style="opacity:0.122" fill="#e3e3e3" d="M 4460.5,4764.5 C 4462.37,4766.64 4463.04,4769.3 4462.5,4772.5C 4461.63,4770 4460.96,4767.33 4460.5,4764.5 Z"/></g>
<g><path style="opacity:0.011" fill="#fcfdfc" d="M 4921.5,4782.5 C 4925.24,4783.65 4925.41,4785.31 4922,4787.5C 4919.5,4790 4917,4792.5 4914.5,4795C 4913.06,4795.78 4911.72,4795.61 4910.5,4794.5C 4911.09,4791.5 4911.75,4788.5 4912.5,4785.5C 4915.43,4784.02 4918.43,4783.02 4921.5,4782.5 Z"/></g>
<g><path style="opacity:0.183" fill="#eaeaea" d="M 4462.5,4774.5 C 4463.94,4775.34 4464.94,4776.67 4465.5,4778.5C 4467.26,4787.77 4470.59,4796.44 4475.5,4804.5C 4481.83,4810.83 4488.17,4817.17 4494.5,4823.5C 4499.41,4826.92 4504.75,4829.59 4510.5,4831.5C 4520.07,4834.54 4529.4,4837.54 4538.5,4840.5C 4518.27,4838.71 4500.27,4831.54 4484.5,4819C 4472.52,4806.53 4465.18,4791.7 4462.5,4774.5 Z"/></g>
<g><path style="opacity:0.011" fill="#fcfdfc" d="M 4825.5,4814.5 C 4829.24,4815.65 4829.41,4817.31 4826,4819.5C 4823.5,4822 4821,4824.5 4818.5,4827C 4817.06,4827.78 4815.72,4827.61 4814.5,4826.5C 4815.09,4823.5 4815.75,4820.5 4816.5,4817.5C 4819.43,4816.02 4822.43,4815.02 4825.5,4814.5 Z"/></g>
<g><path style="opacity:0.008" fill="#fcfdfc" d="M 4549.5,4815.5 C 4557.85,4814.18 4560.85,4817.52 4558.5,4825.5C 4554.06,4823.4 4551.06,4820.06 4549.5,4815.5 Z"/></g>
<g><path style="opacity:0.104" fill="#d4d4d4" d="M 4854.5,4838.5 C 4852.04,4839.53 4849.37,4840.2 4846.5,4840.5C 4848.64,4838.63 4851.3,4837.96 4854.5,4838.5 Z"/></g>
<g><path style="opacity:0.122" fill="#dddddd" d="M 4844.5,4840.5 C 4841.32,4841.32 4837.98,4841.99 4834.5,4842.5C 4837.34,4840.6 4840.67,4839.93 4844.5,4840.5 Z"/></g>
<g><path style="opacity:0.201" fill="#e0e0e0" d="M 4540.5,4840.5 C 4556.87,4840.9 4572.87,4842.24 4588.5,4844.5C 4572.25,4844.37 4556.25,4843.04 4540.5,4840.5 Z"/></g>
<g><path style="opacity:0.584" fill="#aaaaaa" d="M 4601.5,4844.5 C 4671.17,4844.5 4740.83,4844.5 4810.5,4844.5C 4792.34,4845.54 4774.01,4846.21 4755.5,4846.5C 4704,4845.93 4652.67,4845.27 4601.5,4844.5 Z"/></g>
<g><path style="opacity:0.177" fill="#d8d8d8" d="M 8128.5,4988.5 C 8124.63,4990.43 8120.29,4991.1 8115.5,4990.5C 8119.57,4988.95 8123.9,4988.28 8128.5,4988.5 Z"/></g>
<g><path style="opacity:0.125" fill="#dcdcdc" d="M 8184.5,4988.5 C 8187.94,4989.1 8191.27,4989.76 8194.5,4990.5C 8190.67,4991.07 8187.34,4990.4 8184.5,4988.5 Z"/></g>
<g><path style="opacity:0.175" fill="#e1e1e1" d="M 8194.5,4990.5 C 8198.53,4990.67 8202.53,4991.17 8206.5,4992C 8213.84,4993.41 8220.84,4995.58 8227.5,4998.5C 8216.09,4996.56 8205.09,4993.9 8194.5,4990.5 Z"/></g>
<g><path style="opacity:0.008" fill="#fcfdfc" d="M 8239.5,5029.5 C 8244.06,5031.06 8247.4,5034.06 8249.5,5038.5C 8241.52,5040.85 8238.18,5037.85 8239.5,5029.5 Z"/></g>
<g><path style="opacity:0.005" fill="#fcfdfc" d="M 8077.5,5031.5 C 8078.69,5031.97 8079.36,5032.97 8079.5,5034.5C 8078.38,5038.88 8075.71,5040.21 8071.5,5038.5C 8072.83,5035.51 8074.83,5033.17 8077.5,5031.5 Z"/></g>
<g><path style="opacity:1" fill="#2244cf" d="M 1293.5,5032.5 C 1297.07,5034.56 1300.23,5037.22 1303,5040.5C 1317.04,5055.54 1330.7,5070.87 1344,5086.5C 1384.78,5137.38 1422.11,5190.72 1456,5246.5C 1499.85,5322.22 1544.68,5397.22 1590.5,5471.5C 1574.17,5494.1 1554.17,5497.93 1530.5,5483C 1478.11,5444.64 1429.28,5401.8 1384,5354.5C 1351.06,5318.65 1324.06,5278.65 1303,5234.5C 1278.69,5178.28 1269.19,5119.61 1274.5,5058.5C 1280.83,5049.83 1287.17,5041.17 1293.5,5032.5 Z"/></g>
<g><path style="opacity:0.175" fill="#f0f0f0" d="M 8228.5,4998.5 C 8301.92,5022.08 8357.09,5067.75 8394,5135.5C 8405.56,5156.61 8413.72,5178.94 8418.5,5202.5C 8408.43,5168.35 8393.43,5136.35 8373.5,5106.5C 8357.97,5086.96 8340.97,5068.63 8322.5,5051.5C 8295.86,5029.17 8265.86,5012.5 8232.5,5001.5C 8230.67,5000.94 8229.34,4999.94 8228.5,4998.5 Z"/></g>
<g><path style="opacity:0.144" fill="#ededed" d="M 8112.5,4990.5 C 8110.97,4992.04 8108.97,4993.04 8106.5,4993.5C 8069.57,5001.58 8035.57,5016.25 8004.5,5037.5C 7945.96,5079.69 7906.63,5135.36 7886.5,5204.5C 7896.65,5161.52 7915.82,5123.19 7944,5089.5C 7988.62,5037.1 8044.78,5004.1 8112.5,4990.5 Z"/></g>
<g><path style="opacity:0.999" fill="#2345d3" d="M 1274.5,5058.5 C 1269.19,5119.61 1278.69,5178.28 1303,5234.5C 1324.06,5278.65 1351.06,5318.65 1384,5354.5C 1429.28,5401.8 1478.11,5444.64 1530.5,5483C 1554.17,5497.93 1574.17,5494.1 1590.5,5471.5C 1594.11,5473.31 1597.78,5475.14 1601.5,5477C 1617.18,5487.34 1631.01,5499.84 1643,5514.5C 1660.13,5539.09 1674.97,5565.09 1687.5,5592.5C 1641.43,5604.63 1596.43,5601.13 1552.5,5582C 1533.76,5573.57 1515.76,5563.91 1498.5,5553C 1466.55,5530.72 1434.89,5508.05 1403.5,5485C 1374.52,5468.57 1349.02,5447.74 1327,5422.5C 1308.38,5399.54 1291.71,5375.21 1277,5349.5C 1256.01,5309.52 1234.01,5270.19 1211,5231.5C 1198.26,5212.01 1184.1,5193.68 1168.5,5176.5C 1184.96,5151.86 1202.8,5128.19 1222,5105.5C 1237.83,5087.83 1255.33,5072.16 1274.5,5058.5 Z"/></g>
<g><path style="opacity:0.008" fill="#fcfdfc" d="M 8303.5,5061.5 C 8308.06,5063.06 8311.4,5066.06 8313.5,5070.5C 8305.52,5072.85 8302.18,5069.85 8303.5,5061.5 Z"/></g>
<g><path style="opacity:0.005" fill="#fcfdfc" d="M 8013.5,5063.5 C 8014.69,5063.97 8015.36,5064.97 8015.5,5066.5C 8014.38,5070.88 8011.71,5072.21 8007.5,5070.5C 8008.83,5067.51 8010.83,5065.17 8013.5,5063.5 Z"/></g>
<g><path style="opacity:0.008" fill="#fcfdfc" d="M 8335.5,5093.5 C 8340.06,5095.06 8343.4,5098.06 8345.5,5102.5C 8337.52,5104.85 8334.18,5101.85 8335.5,5093.5 Z"/></g>
<g><path style="opacity:0.005" fill="#fcfdfc" d="M 7981.5,5095.5 C 7982.69,5095.97 7983.36,5096.97 7983.5,5098.5C 7982.38,5102.88 7979.71,5104.21 7975.5,5102.5C 7976.83,5099.51 7978.83,5097.17 7981.5,5095.5 Z"/></g>
<g><path style="opacity:0.005" fill="#fcfdfc" d="M 7949.5,5127.5 C 7950.69,5127.97 7951.36,5128.97 7951.5,5130.5C 7950.38,5134.88 7947.71,5136.21 7943.5,5134.5C 7944.83,5131.51 7946.83,5129.17 7949.5,5127.5 Z"/></g>
<g><path style="opacity:0.25" fill="#cacaca" d="M 4854.5,5156.5 C 4753.17,5157.33 4651.83,5158 4550.5,5158.5C 4549.5,5158.5 4548.5,5158.5 4547.5,5158.5C 4554.99,5157.67 4562.66,5157.17 4570.5,5157C 4641,5156.49 4711.5,5155.99 4782,5155.5C 4806.34,5155.5 4830.5,5155.83 4854.5,5156.5 Z"/></g>
<g><path style="opacity:0.177" fill="#efefef" d="M 4868.5,5156.5 C 4877.31,5157.08 4885.98,5157.75 4894.5,5158.5C 4885.44,5159.14 4876.77,5158.47 4868.5,5156.5 Z"/></g>
<g><path style="opacity:0.008" fill="#fcfdfc" d="M 8367.5,5157.5 C 8372.06,5159.06 8375.4,5162.06 8377.5,5166.5C 8369.52,5168.85 8366.18,5165.85 8367.5,5157.5 Z"/></g>
<g><path style="opacity:0.202" fill="#dfdfdf" d="M 4547.5,5158.5 C 4548.5,5158.5 4549.5,5158.5 4550.5,5158.5C 4543.58,5160.46 4536.24,5161.13 4528.5,5160.5C 4534.59,5158.91 4540.93,5158.24 4547.5,5158.5 Z"/></g>
<g><path style="opacity:0.272" fill="#eeeeee" d="M 4896.5,5158.5 C 4906.04,5158.34 4915.37,5159.01 4924.5,5160.5C 4914.77,5161.14 4905.44,5160.47 4896.5,5158.5 Z"/></g>
<g><path style="opacity:0.109" fill="#dedede" d="M 4928.5,5160.5 C 4931.37,5160.8 4934.04,5161.47 4936.5,5162.5C 4933.3,5163.04 4930.64,5162.37 4928.5,5160.5 Z"/></g>
<g><path style="opacity:0.13" fill="#dddddd" d="M 4938.5,5162.5 C 4942.04,5162.75 4945.37,5163.42 4948.5,5164.5C 4944.67,5165.07 4941.34,5164.4 4938.5,5162.5 Z"/></g>
<g><path style="opacity:0.145" fill="#e8e8e8" d="M 4948.5,5164.5 C 4953.46,5165.22 4958.13,5166.55 4962.5,5168.5C 4959.75,5168.81 4957.09,5168.48 4954.5,5167.5C 4952.03,5167.04 4950.03,5166.04 4948.5,5164.5 Z"/></g>
<g><path style="opacity:0.148" fill="#e9e9e9" d="M 4526.5,5160.5 C 4515.11,5163.2 4503.77,5166.86 4492.5,5171.5C 4479.84,5179.5 4470.84,5190.5 4465.5,5204.5C 4463.42,5213.5 4461.09,5222.16 4458.5,5230.5C 4460.56,5187.11 4483.23,5163.77 4526.5,5160.5 Z"/></g>
<g><path style="opacity:0.999" fill="#2447d9" d="M 1168.5,5176.5 C 1184.1,5193.68 1198.26,5212.01 1211,5231.5C 1234.01,5270.19 1256.01,5309.52 1277,5349.5C 1291.71,5375.21 1308.38,5399.54 1327,5422.5C 1349.02,5447.74 1374.52,5468.57 1403.5,5485C 1434.89,5508.05 1466.55,5530.72 1498.5,5553C 1515.76,5563.91 1533.76,5573.57 1552.5,5582C 1596.43,5601.13 1641.43,5604.63 1687.5,5592.5C 1719.09,5607 1735.76,5631.66 1737.5,5666.5C 1719.19,5682.47 1700.86,5698.47 1682.5,5714.5C 1595.77,5696.21 1513.77,5666.05 1436.5,5624C 1314.08,5554.24 1219.25,5457.41 1152,5333.5C 1134.27,5300.68 1118.77,5267.01 1105.5,5232.5C 1126.5,5213.83 1147.5,5195.17 1168.5,5176.5 Z"/></g>
<g><path style="opacity:0.008" fill="#fdfefd" d="M 4943.5,5189.5 C 4948.06,5191.06 4951.4,5194.06 4953.5,5198.5C 4945.52,5200.85 4942.18,5197.85 4943.5,5189.5 Z"/></g>
<g><path style="opacity:0.005" fill="#fdfefd" d="M 4525.5,5191.5 C 4526.69,5191.97 4527.36,5192.97 4527.5,5194.5C 4526.38,5198.88 4523.71,5200.21 4519.5,5198.5C 4520.83,5195.51 4522.83,5193.17 4525.5,5191.5 Z"/></g>
<g><path style="opacity:0.137" fill="#efefef" d="M 4962.5,5168.5 C 5037.82,5189.65 5088.99,5236.99 5116,5310.5C 5118.81,5320.39 5120.97,5330.39 5122.5,5340.5C 5118.52,5326.65 5114.19,5312.65 5109.5,5298.5C 5104.83,5289.17 5100.17,5279.83 5095.5,5270.5C 5076.59,5241.59 5052.92,5217.25 5024.5,5197.5C 5004.68,5185.58 4984.01,5175.92 4962.5,5168.5 Z"/></g>
<g><path style="opacity:0.153" fill="#dfdfdf" d="M 8418.5,5203.5 C 8420.84,5209.5 8422.17,5215.84 8422.5,5222.5C 8420.06,5216.64 8418.73,5210.31 8418.5,5203.5 Z"/></g>
<g><path style="opacity:0.121" fill="#e0e0e0" d="M 7886.5,5205.5 C 7887.01,5208.39 7886.34,5210.72 7884.5,5212.5C 7884.41,5209.85 7885.08,5207.51 7886.5,5205.5 Z"/></g>
<g><path style="opacity:0.125" fill="#cdcdcd" d="M 7884.5,5212.5 C 7885.07,5216.33 7884.4,5219.66 7882.5,5222.5C 7882.75,5218.96 7883.42,5215.63 7884.5,5212.5 Z"/></g>
<g><path style="opacity:0.008" fill="#fdfefd" d="M 5007.5,5221.5 C 5012.06,5223.06 5015.4,5226.06 5017.5,5230.5C 5009.52,5232.85 5006.18,5229.85 5007.5,5221.5 Z"/></g>
<g><path style="opacity:0.005" fill="#fdfefd" d="M 4493.5,5223.5 C 4494.69,5223.97 4495.36,5224.97 4495.5,5226.5C 4494.38,5230.88 4491.71,5232.21 4487.5,5230.5C 4488.83,5227.51 4490.83,5225.17 4493.5,5223.5 Z"/></g>
<g><path style="opacity:0.005" fill="#fcfdfc" d="M 7917.5,5223.5 C 7918.69,5223.97 7919.36,5224.97 7919.5,5226.5C 7918.38,5230.88 7915.71,5232.21 7911.5,5230.5C 7912.83,5227.51 7914.83,5225.17 7917.5,5223.5 Z"/></g>
<g><path style="opacity:0.306" fill="#d6d6d6" d="M 8422.5,5222.5 C 8423.78,5228.29 8424.62,5234.29 8425,5240.5C 8425.83,5251.67 8425.66,5262.67 8424.5,5273.5C 8423.98,5256.49 8423.31,5239.49 8422.5,5222.5 Z"/></g>
<g><path style="opacity:0.2" fill="#dbdbdb" d="M 7882.5,5224.5 C 7883.12,5230.93 7882.45,5236.93 7880.5,5242.5C 7880.52,5236.29 7881.19,5230.29 7882.5,5224.5 Z"/></g>
<g><path style="opacity:0.999" fill="#2549df" d="M 1105.5,5232.5 C 1118.77,5267.01 1134.27,5300.68 1152,5333.5C 1219.25,5457.41 1314.08,5554.24 1436.5,5624C 1513.77,5666.05 1595.77,5696.21 1682.5,5714.5C 1675.77,5734.75 1663.77,5751.25 1646.5,5764C 1634.98,5772.59 1622.98,5780.42 1610.5,5787.5C 1579.41,5779.47 1548.41,5770.64 1517.5,5761C 1442.56,5729.27 1371.56,5690.93 1304.5,5646C 1234.54,5598.37 1176.37,5539.2 1130,5468.5C 1093.68,5409.04 1068.84,5345.04 1055.5,5276.5C 1071.84,5261.49 1088.51,5246.82 1105.5,5232.5 Z"/></g>
<g><path style="opacity:0.008" fill="#fdfefd" d="M 5039.5,5253.5 C 5044.06,5255.06 5047.4,5258.06 5049.5,5262.5C 5041.52,5264.85 5038.18,5261.85 5039.5,5253.5 Z"/></g>
<g><path style="opacity:0.998" fill="#264be4" d="M 1055.5,5276.5 C 1068.84,5345.04 1093.68,5409.04 1130,5468.5C 1176.37,5539.2 1234.54,5598.37 1304.5,5646C 1371.56,5690.93 1442.56,5729.27 1517.5,5761C 1548.41,5770.64 1579.41,5779.47 1610.5,5787.5C 1587.2,5820.46 1557.2,5845.46 1520.5,5862.5C 1345.9,5800.04 1201.4,5696.04 1087,5550.5C 1038.03,5487.98 995.195,5421.31 958.5,5350.5C 990.615,5325.6 1022.95,5300.94 1055.5,5276.5 Z"/></g>
<g><path style="opacity:0.229" fill="#ededed" d="M 8424.5,5278.5 C 8424.35,5284.7 8423.68,5290.7 8422.5,5296.5C 8421.88,5290.07 8422.55,5284.07 8424.5,5278.5 Z"/></g>
<g><path style="opacity:0.008" fill="#fdfefd" d="M 5071.5,5285.5 C 5076.06,5287.06 5079.4,5290.06 5081.5,5294.5C 5073.52,5296.85 5070.18,5293.85 5071.5,5285.5 Z"/></g>
<g><path style="opacity:0.008" fill="#fcfdfc" d="M 7909.5,5295.5 C 7917.85,5294.18 7920.85,5297.52 7918.5,5305.5C 7914.06,5303.4 7911.06,5300.06 7909.5,5295.5 Z"/></g>
<g><path style="opacity:0.137" fill="#e1e1e1" d="M 8422.5,5298.5 C 8422.58,5301.78 8421.91,5304.78 8420.5,5307.5C 8419.95,5303.99 8420.61,5300.99 8422.5,5298.5 Z"/></g>
<g><path style="opacity:0.223" fill="#ececec" d="M 7882.5,5296.5 C 7884.04,5298.03 7885.04,5300.03 7885.5,5302.5C 7886.49,5306.45 7886.82,5310.45 7886.5,5314.5C 7884.88,5308.68 7883.55,5302.68 7882.5,5296.5 Z"/></g>
<g><path style="opacity:0.153" fill="#e5e5e5" d="M 8420.5,5308.5 C 8420.25,5312.04 8419.58,5315.37 8418.5,5318.5C 8417.93,5314.67 8418.6,5311.34 8420.5,5308.5 Z"/></g>
<g><path style="opacity:0.141" fill="#f7f7f7" d="M 7886.5,5314.5 C 7888.34,5316.28 7889.01,5318.61 7888.5,5321.5C 7887.39,5319.4 7886.72,5317.07 7886.5,5314.5 Z"/></g>
<g><path style="opacity:0.135" fill="#dbdbdb" d="M 5122.5,5340.5 C 5123.99,5344.24 5124.66,5348.24 5124.5,5352.5C 5122.58,5348.97 5121.91,5344.97 5122.5,5340.5 Z"/></g>
<g><path style="opacity:0.999" fill="#264dea" d="M 958.5,5350.5 C 995.195,5421.31 1038.03,5487.98 1087,5550.5C 1201.4,5696.04 1345.9,5800.04 1520.5,5862.5C 1505.38,5888.9 1483.05,5905.9 1453.5,5913.5C 1374.44,5893.42 1299.44,5863.26 1228.5,5823C 1126.09,5762.25 1045.59,5680.09 987,5576.5C 953.914,5516.65 920.08,5457.32 885.5,5398.5C 904.237,5374.28 928.57,5358.28 958.5,5350.5 Z"/></g>
<g><path style="opacity:0.011" fill="#fcfdfc" d="M 8377.5,5358.5 C 8381.24,5359.65 8381.41,5361.31 8378,5363.5C 8375.5,5366 8373,5368.5 8370.5,5371C 8369.06,5371.78 8367.72,5371.61 8366.5,5370.5C 8367.09,5367.5 8367.75,5364.5 8368.5,5361.5C 8371.43,5360.02 8374.43,5359.02 8377.5,5358.5 Z"/></g>
<g><path style="opacity:0.166" fill="#ededed" d="M 7888.5,5322.5 C 7909.33,5386.45 7946.66,5438.78 8000.5,5479.5C 8054.5,5518.42 8114.84,5535.42 8181.5,5530.5C 8124.45,5537.08 8071.12,5525.58 8021.5,5496C 7954.41,5455.66 7910.07,5397.83 7888.5,5322.5 Z"/></g>
<g><path style="opacity:0.608" fill="#7f7f7f" d="M 5124.5,5353.5 C 5126.96,5366.51 5126.96,5379.51 5124.5,5392.5C 5124.5,5379.5 5124.5,5366.5 5124.5,5353.5 Z"/></g>
<g><path style="opacity:0.008" fill="#fcfdfc" d="M 7941.5,5391.5 C 7949.85,5390.18 7952.85,5393.52 7950.5,5401.5C 7946.06,5399.4 7943.06,5396.06 7941.5,5391.5 Z"/></g>
<g><path style="opacity:0.999" fill="#274ff0" d="M 885.5,5398.5 C 920.08,5457.32 953.914,5516.65 987,5576.5C 1045.59,5680.09 1126.09,5762.25 1228.5,5823C 1299.44,5863.26 1374.44,5893.42 1453.5,5913.5C 1427.08,5947.58 1393.41,5971.58 1352.5,5985.5C 1240.94,5941.98 1140.61,5880.81 1051.5,5802C 942.907,5701.06 862.574,5580.89 810.5,5441.5C 835.663,5427.42 860.663,5413.09 885.5,5398.5 Z"/></g>
<g><path style="opacity:0.195" fill="#efefef" d="M 8418.5,5318.5 C 8395.31,5407.03 8342.31,5470.86 8259.5,5510C 8244.97,5516.34 8229.97,5521.18 8214.5,5524.5C 8231.34,5519.21 8248,5512.88 8264.5,5505.5C 8283.51,5495.67 8301.51,5484.33 8318.5,5471.5C 8333.5,5456.5 8348.5,5441.5 8363.5,5426.5C 8372.66,5414.18 8381.33,5401.51 8389.5,5388.5C 8401.37,5365.83 8411.04,5342.5 8418.5,5318.5 Z"/></g>
<g><path style="opacity:0.133" fill="#dcdcdc" d="M 5124.5,5400.5 C 5124.25,5404.04 5123.58,5407.37 5122.5,5410.5C 5121.93,5406.67 5122.6,5403.34 5124.5,5400.5 Z"/></g>
<g><path style="opacity:0.095" fill="#e9e9e9" d="M 5122.5,5414.5 C 5122.07,5417.01 5121.41,5419.34 5120.5,5421.5C 5119.99,5418.61 5120.66,5416.28 5122.5,5414.5 Z"/></g>
<g><path style="opacity:0.16" fill="#eeeeee" d="M 5120.5,5422.5 C 5119.77,5428.08 5118.44,5433.42 5116.5,5438.5C 5116.18,5435.1 5116.51,5431.77 5117.5,5428.5C 5117.96,5426.03 5118.96,5424.03 5120.5,5422.5 Z"/></g>
<g><path style="opacity:0.011" fill="#fcfdfc" d="M 8345.5,5422.5 C 8349.24,5423.65 8349.41,5425.31 8346,5427.5C 8343.5,5430 8341,5432.5 8338.5,5435C 8337.06,5435.78 8335.72,5435.61 8334.5,5434.5C 8335.09,5431.5 8335.75,5428.5 8336.5,5425.5C 8339.43,5424.02 8342.43,5423.02 8345.5,5422.5 Z"/></g>
<g><path style="opacity:0.008" fill="#fcfdfc" d="M 7973.5,5423.5 C 7981.85,5422.18 7984.85,5425.52 7982.5,5433.5C 7978.06,5431.4 7975.06,5428.06 7973.5,5423.5 Z"/></g>
<g><path style="opacity:0.236" fill="#cccccc" d="M 4456.5,5255.5 C 4456.08,5327.85 4456.75,5400.18 4458.5,5472.5C 4457.58,5462.33 4456.75,5452 4456,5441.5C 4455.17,5379.33 4455.33,5317.33 4456.5,5255.5 Z"/></g>
<g><path style="opacity:0.998" fill="#2851f6" d="M 810.5,5441.5 C 862.574,5580.89 942.907,5701.06 1051.5,5802C 1140.61,5880.81 1240.94,5941.98 1352.5,5985.5C 1338.48,6002.36 1322.14,6016.52 1303.5,6028C 1281.51,6041.5 1258.18,6052 1233.5,6059.5C 1118.78,5989.68 1014.95,5905.68 922,5807.5C 834.954,5712.86 765.121,5606.53 712.5,5488.5C 745.102,5472.87 777.769,5457.2 810.5,5441.5 Z"/></g>
<g><path style="opacity:0.011" fill="#fdfefd" d="M 5081.5,5454.5 C 5085.24,5455.65 5085.41,5457.31 5082,5459.5C 5079.5,5462 5077,5464.5 5074.5,5467C 5073.06,5467.78 5071.72,5467.61 5070.5,5466.5C 5071.09,5463.5 5071.75,5460.5 5072.5,5457.5C 5075.43,5456.02 5078.43,5455.02 5081.5,5454.5 Z"/></g>
<g><path style="opacity:0.011" fill="#fcfdfc" d="M 8313.5,5454.5 C 8317.24,5455.65 8317.41,5457.31 8314,5459.5C 8311.5,5462 8309,5464.5 8306.5,5467C 8305.06,5467.78 8303.72,5467.61 8302.5,5466.5C 8303.09,5463.5 8303.75,5460.5 8304.5,5457.5C 8307.43,5456.02 8310.43,5455.02 8313.5,5454.5 Z"/></g>
<g><path style="opacity:0.008" fill="#fcfdfc" d="M 8005.5,5455.5 C 8013.85,5454.18 8016.85,5457.52 8014.5,5465.5C 8010.06,5463.4 8007.06,5460.06 8005.5,5455.5 Z"/></g>
<g><path style="opacity:0.185" fill="#f1f1f1" d="M 4458.5,5472.5 C 4460.45,5477.74 4461.12,5483.4 4460.5,5489.5C 4459.26,5484.04 4458.6,5478.37 4458.5,5472.5 Z"/></g>
<g><path style="opacity:0.011" fill="#fcfdfc" d="M 8249.5,5486.5 C 8253.24,5487.65 8253.41,5489.31 8250,5491.5C 8247.5,5494 8245,5496.5 8242.5,5499C 8241.06,5499.78 8239.72,5499.61 8238.5,5498.5C 8239.09,5495.5 8239.75,5492.5 8240.5,5489.5C 8243.43,5488.02 8246.43,5487.02 8249.5,5486.5 Z"/></g>
<g><path style="opacity:0.008" fill="#fdfefd" d="M 4485.5,5487.5 C 4493.85,5486.18 4496.85,5489.52 4494.5,5497.5C 4490.06,5495.4 4487.06,5492.06 4485.5,5487.5 Z"/></g>
<g><path style="opacity:0.008" fill="#fcfdfc" d="M 8069.5,5487.5 C 8077.85,5486.18 8080.85,5489.52 8078.5,5497.5C 8074.06,5495.4 8071.06,5492.06 8069.5,5487.5 Z"/></g>
<g><path style="opacity:0.998" fill="#2953fd" d="M 712.5,5488.5 C 765.121,5606.53 834.954,5712.86 922,5807.5C 1014.95,5905.68 1118.78,5989.68 1233.5,6059.5C 1079.34,6158.4 914.003,6233.9 737.5,6286C 590.43,6328.79 440.764,6358.79 288.5,6376C 225.999,6383.45 163.332,6388.95 100.5,6392.5C 58.8392,6395.44 37.0059,6376.1 35,6334.5C 34.8333,6325.67 34.6667,6316.83 34.5,6308C 35.9176,6210.17 36.5843,6112.34 36.5,6014.5C 36.3551,5906.16 35.8551,5797.83 35,5689.5C 37.8184,5647.69 60.3184,5626.86 102.5,5627C 210.151,5626.13 316.151,5612.46 420.5,5586C 520.081,5559.97 617.414,5527.47 712.5,5488.5 Z"/></g>
<g><path style="opacity:0.154" fill="#f1f1f1" d="M 5116.5,5438.5 C 5099.36,5497.91 5063.02,5541.41 5007.5,5569C 4999.36,5572.74 4991.02,5575.91 4982.5,5578.5C 4998.63,5570.77 5014.63,5562.43 5030.5,5553.5C 5048.03,5539.97 5064.37,5524.97 5079.5,5508.5C 5084.83,5500.5 5090.17,5492.5 5095.5,5484.5C 5103.69,5469.46 5110.69,5454.13 5116.5,5438.5 Z"/></g>
<g><path style="opacity:0.165" fill="#eeeeee" d="M 4460.5,5492.5 C 4463.07,5498.68 4464.4,5505.34 4464.5,5512.5C 4462.2,5506.15 4460.86,5499.48 4460.5,5492.5 Z"/></g>
<g><path style="opacity:0.145" fill="#f9f9f9" d="M 4464.5,5512.5 C 4466.37,5514.64 4467.04,5517.3 4466.5,5520.5C 4465.23,5518.09 4464.57,5515.43 4464.5,5512.5 Z"/></g>
<g><path style="opacity:0.011" fill="#fdfefd" d="M 5049.5,5518.5 C 5053.24,5519.65 5053.41,5521.31 5050,5523.5C 5047.5,5526 5045,5528.5 5042.5,5531C 5041.06,5531.78 5039.72,5531.61 5038.5,5530.5C 5039.09,5527.5 5039.75,5524.5 5040.5,5521.5C 5043.43,5520.02 5046.43,5519.02 5049.5,5518.5 Z"/></g>
<g><path style="opacity:0.121" fill="#e3e3e3" d="M 8214.5,5524.5 C 8209.5,5526.71 8204.16,5528.04 8198.5,5528.5C 8203.31,5525.96 8208.64,5524.63 8214.5,5524.5 Z"/></g>
<g><path style="opacity:0.188" fill="#f3f3f3" d="M 8194.5,5528.5 C 8191.41,5529.78 8188.08,5530.45 8184.5,5530.5C 8187.34,5528.6 8190.67,5527.93 8194.5,5528.5 Z"/></g>
<g><path style="opacity:0.14" fill="#eeeeee" d="M 4466.5,5520.5 C 4474.85,5546.53 4491.52,5565.53 4516.5,5577.5C 4529.17,5582.08 4541.84,5585.75 4554.5,5588.5C 4531.7,5586.63 4511.04,5579.13 4492.5,5566C 4478.53,5553.9 4469.86,5538.73 4466.5,5520.5 Z"/></g>
<g><path style="opacity:0.011" fill="#fdfefd" d="M 4985.5,5550.5 C 4989.24,5551.65 4989.41,5553.31 4986,5555.5C 4983.5,5558 4981,5560.5 4978.5,5563C 4977.06,5563.78 4975.72,5563.61 4974.5,5562.5C 4975.09,5559.5 4975.75,5556.5 4976.5,5553.5C 4979.43,5552.02 4982.43,5551.02 4985.5,5550.5 Z"/></g>
<g><path style="opacity:0.008" fill="#fdfefd" d="M 4517.5,5551.5 C 4525.85,5550.18 4528.85,5553.52 4526.5,5561.5C 4522.06,5559.4 4519.06,5556.06 4517.5,5551.5 Z"/></g>
<g><path style="opacity:0.112" fill="#f5f5f5" d="M 4982.5,5578.5 C 4980.79,5579.74 4978.79,5580.41 4976.5,5580.5C 4977.92,5578.69 4979.92,5578.03 4982.5,5578.5 Z"/></g>
<g><path style="opacity:0.139" fill="#efefef" d="M 4976.5,5580.5 C 4972.27,5582.96 4967.6,5584.29 4962.5,5584.5C 4966.7,5582.28 4971.37,5580.94 4976.5,5580.5 Z"/></g>
<g><path style="opacity:0.145" fill="#f7f7f7" d="M 4962.5,5584.5 C 4960.09,5585.77 4957.43,5586.43 4954.5,5586.5C 4956.64,5584.63 4959.3,5583.96 4962.5,5584.5 Z"/></g>
<g><path style="opacity:0.165" fill="#e7e7e7" d="M 4954.5,5586.5 C 4948.76,5588.46 4942.76,5589.8 4936.5,5590.5C 4938.72,5588.92 4941.38,5587.92 4944.5,5587.5C 4947.77,5586.51 4951.1,5586.18 4954.5,5586.5 Z"/></g>
<g><path style="opacity:0.185" fill="#ededed" d="M 4556.5,5588.5 C 4562.93,5587.88 4568.93,5588.55 4574.5,5590.5C 4568.3,5590.35 4562.3,5589.68 4556.5,5588.5 Z"/></g>
<g><path style="opacity:0.176" fill="#dedede" d="M 4576.5,5590.5 C 4584.24,5589.87 4591.58,5590.54 4598.5,5592.5C 4590.93,5592.84 4583.6,5592.18 4576.5,5590.5 Z"/></g>
<g><path style="opacity:0.316" fill="#e7e7e7" d="M 4932.5,5590.5 C 4927.68,5591.57 4922.68,5592.4 4917.5,5593C 4822.17,5594.6 4726.84,5594.93 4631.5,5594C 4620.99,5593.83 4610.66,5593.33 4600.5,5592.5C 4711.19,5593.09 4821.86,5592.42 4932.5,5590.5 Z"/></g>
</svg>
