<svg width="64" height="65" viewBox="0 0 64 65" fill="none" xmlns="http://www.w3.org/2000/svg">
<path opacity="0.888" fill-rule="evenodd" clip-rule="evenodd" d="M29.5601 0C32.0811 0 34.6022 0 37.1232 0C37.1232 1.62495 37.1232 3.2499 37.1232 4.87484C43.9421 4.40496 50.5599 4.9466 56.9764 6.49979C58.237 15.1661 58.237 23.8326 56.9764 32.499C41.22 34.6655 25.4633 34.6655 9.70691 32.499C8.44633 23.8326 8.44633 15.1661 9.70691 6.49979C16.1235 4.9466 22.7412 4.40496 29.5601 4.87484C29.5601 3.2499 29.5601 1.62495 29.5601 0ZM18.2154 9.74969C28.3192 9.47991 38.4035 9.75074 48.4679 10.5622C53.51 16.5204 53.51 22.4784 48.4679 28.4366C38.3838 29.5199 28.2995 29.5199 18.2154 28.4366C13.2516 22.21 13.2516 15.981 18.2154 9.74969Z" fill="white"/>
<path opacity="0.766" fill-rule="evenodd" clip-rule="evenodd" d="M20.1062 14.6245C23.2576 14.6245 26.4087 14.6245 29.5601 14.6245C29.5601 17.3328 29.5601 20.041 29.5601 22.7493C26.4087 22.7493 23.2576 22.7493 20.1062 22.7493C20.1062 20.041 20.1062 17.3328 20.1062 14.6245Z" fill="white"/>
<path opacity="0.766" fill-rule="evenodd" clip-rule="evenodd" d="M37.1232 14.6245C40.2746 14.6245 43.4258 14.6245 46.5771 14.6245C46.5771 17.3328 46.5771 20.041 46.5771 22.7493C43.4258 22.7493 40.2746 22.7493 37.1232 22.7493C37.1232 20.041 37.1232 17.3328 37.1232 14.6245Z" fill="white"/>
<path opacity="0.791" fill-rule="evenodd" clip-rule="evenodd" d="M4.98 38.9987C23.8984 38.7282 42.8062 38.9991 61.7034 39.8112C67.4516 52.7703 62.4094 60.8951 46.5772 64.1854C34.1842 65.9415 22.2094 64.8582 10.6523 60.9355C2.95577 54.8521 1.06499 47.5398 4.98 38.9987ZM12.5431 43.8736C26.4231 43.6034 40.2888 43.8741 54.1403 44.6861C56.8271 51.6707 53.6759 56.0038 44.6864 57.6857C37.1233 58.769 29.5601 58.769 21.997 57.6857C12.5331 55.861 9.38174 51.2569 12.5431 43.8736Z" fill="white"/>
</svg>
