<?xml version="1.0" encoding="UTF-8"?>
<!DOCTYPE svg PUBLIC "-//W3C//DTD SVG 1.1//EN" "http://www.w3.org/Graphics/SVG/1.1/DTD/svg11.dtd">
<svg xmlns="http://www.w3.org/2000/svg" version="1.1" width="48px" height="48px" style="shape-rendering:geometricPrecision; text-rendering:geometricPrecision; image-rendering:optimizeQuality; fill-rule:evenodd; clip-rule:evenodd" xmlns:xlink="http://www.w3.org/1999/xlink">
<g><path style="opacity:0.888" fill="#ffffff" d="M 21.5,3.5 C 22.8333,3.5 24.1667,3.5 25.5,3.5C 25.5,4.5 25.5,5.5 25.5,6.5C 29.1064,6.21083 32.6064,6.54416 36,7.5C 36.6667,12.8333 36.6667,18.1667 36,23.5C 27.6667,24.8333 19.3333,24.8333 11,23.5C 10.3333,18.1667 10.3333,12.8333 11,7.5C 14.3936,6.54416 17.8936,6.21083 21.5,6.5C 21.5,5.5 21.5,4.5 21.5,3.5 Z M 15.5,9.5 C 20.8437,9.33398 26.1771,9.50065 31.5,10C 34.1667,13.6667 34.1667,17.3333 31.5,21C 26.1667,21.6667 20.8333,21.6667 15.5,21C 12.8747,17.1681 12.8747,13.3348 15.5,9.5 Z"/></g>
<g><path style="opacity:0.766" fill="#ffffff" d="M 16.5,12.5 C 18.1667,12.5 19.8333,12.5 21.5,12.5C 21.5,14.1667 21.5,15.8333 21.5,17.5C 19.8333,17.5 18.1667,17.5 16.5,17.5C 16.5,15.8333 16.5,14.1667 16.5,12.5 Z"/></g>
<g><path style="opacity:0.766" fill="#ffffff" d="M 25.5,12.5 C 27.1667,12.5 28.8333,12.5 30.5,12.5C 30.5,14.1667 30.5,15.8333 30.5,17.5C 28.8333,17.5 27.1667,17.5 25.5,17.5C 25.5,15.8333 25.5,14.1667 25.5,12.5 Z"/></g>
<g><path style="opacity:0.791" fill="#ffffff" d="M 8.5,27.5 C 18.5056,27.3335 28.5056,27.5002 38.5,28C 41.5401,35.9751 38.8734,40.9751 30.5,43C 23.9456,44.0807 17.6123,43.414 11.5,41C 7.42942,37.2562 6.42942,32.7562 8.5,27.5 Z M 12.5,30.5 C 19.8409,30.3337 27.1742,30.5003 34.5,31C 35.921,35.2984 34.2544,37.965 29.5,39C 25.5,39.6667 21.5,39.6667 17.5,39C 12.4947,37.8771 10.828,35.0437 12.5,30.5 Z"/></g>
</svg>
