<svg width="44" height="50" viewBox="0 0 44 50" fill="none" xmlns="http://www.w3.org/2000/svg">
<path d="M39.1712 7.14289H36.071C36.0064 7.14289 35.949 7.16508 35.8889 7.17961V3.92406C35.8889 1.76016 34.0884 0 31.8749 0H4.98225C2.76873 0 0.968262 1.76016 0.968262 3.92406V40.5204C0.968262 42.6843 2.76873 44.4445 4.98225 44.4445H9.69842V46.2162C9.69842 48.3027 11.4299 50 13.559 50H39.1712C41.3003 50 43.0318 48.3027 43.0318 46.2162V10.9266C43.0318 8.84023 41.3003 7.14289 39.1712 7.14289ZM2.55553 40.5204V3.92406C2.55553 2.63594 3.64451 1.58734 4.98225 1.58734H31.8749C33.2126 1.58734 34.3016 2.63594 34.3016 3.92406V40.5204C34.3016 41.8085 33.2126 42.8572 31.8749 42.8572H4.98225C3.64451 42.8572 2.55553 41.8085 2.55553 40.5204ZM41.4444 46.2162C41.4444 47.4277 40.4245 48.4127 39.1712 48.4127H13.559C12.3057 48.4127 11.2857 47.4277 11.2857 46.2162V44.4445H31.8749C34.0884 44.4445 35.8889 42.6843 35.8889 40.5204V8.69344C35.949 8.70797 36.0064 8.73016 36.071 8.73016H39.1712C40.4245 8.73016 41.4444 9.71523 41.4444 10.9266V46.2162Z" fill="#0489FF"/>
<path d="M27.1587 10.3175H9.6984C9.25972 10.3175 8.90472 10.6724 8.90472 11.1111C8.90472 11.5498 9.25972 11.9048 9.6984 11.9048H27.1587C27.5974 11.9048 27.9524 11.5498 27.9524 11.1111C27.9524 10.6724 27.5974 10.3175 27.1587 10.3175Z" fill="#0489FF"/>
<path d="M27.1587 16.6667H9.6984C9.25972 16.6667 8.90472 17.0216 8.90472 17.4603C8.90472 17.899 9.25972 18.254 9.6984 18.254H27.1587C27.5974 18.254 27.9524 17.899 27.9524 17.4603C27.9524 17.0216 27.5974 16.6667 27.1587 16.6667Z" fill="#0489FF"/>
<path d="M27.1587 23.0159H9.6984C9.25972 23.0159 8.90472 23.3709 8.90472 23.8095C8.90472 24.2482 9.25972 24.6032 9.6984 24.6032H27.1587C27.5974 24.6032 27.9524 24.2482 27.9524 23.8095C27.9524 23.3709 27.5974 23.0159 27.1587 23.0159Z" fill="#0489FF"/>
<path d="M19.2222 29.3651H9.6984C9.25972 29.3651 8.90472 29.7201 8.90472 30.1588C8.90472 30.5974 9.25972 30.9524 9.6984 30.9524H19.2222C19.6609 30.9524 20.0158 30.5974 20.0158 30.1588C20.0158 29.7201 19.6609 29.3651 19.2222 29.3651Z" fill="#0489FF"/>
</svg>
