<?xml version="1.0" encoding="UTF-8"?>
<svg xmlns="http://www.w3.org/2000/svg" version="1.1" width="64px" height="64px" style="shape-rendering:geometricPrecision; text-rendering:geometricPrecision; image-rendering:optimizeQuality; fill-rule:evenodd; clip-rule:evenodd" xmlns:xlink="http://www.w3.org/1999/xlink">
<g><path style="opacity:0.977" fill="#ffffff" d="M 3.5,7.5 C 22.1667,7.5 40.8333,7.5 59.5,7.5C 59.5,23.5 59.5,39.5 59.5,55.5C 40.8333,55.5 22.1667,55.5 3.5,55.5C 3.5,39.5 3.5,23.5 3.5,7.5 Z M 6.5,9.5 C 23.17,9.3334 39.8367,9.50007 56.5,10C 57.4874,21.0854 57.8207,32.252 57.5,43.5C 40.1667,43.5 22.8333,43.5 5.5,43.5C 5.18937,32.0857 5.5227,20.7524 6.5,9.5 Z M 5.5,45.5 C 22.8333,45.5 40.1667,45.5 57.5,45.5C 57.7683,48.1194 57.435,50.6194 56.5,53C 39.8333,53.6667 23.1667,53.6667 6.5,53C 5.565,50.6194 5.23166,48.1194 5.5,45.5 Z"/></g>
<g><path style="opacity:0.766" fill="#ffffff" d="M 19.5,11.5 C 21.337,11.6395 21.6704,12.3061 20.5,13.5C 19.7025,13.0431 19.3691,12.3764 19.5,11.5 Z"/></g>
<g><path style="opacity:0.766" fill="#ffffff" d="M 41.5,11.5 C 43.337,11.6395 43.6704,12.3061 42.5,13.5C 41.7025,13.0431 41.3691,12.3764 41.5,11.5 Z"/></g>
<g><path style="opacity:0.766" fill="#ffffff" d="M 19.5,15.5 C 21.337,15.6395 21.6704,16.3061 20.5,17.5C 19.7025,17.0431 19.3691,16.3764 19.5,15.5 Z"/></g>
<g><path style="opacity:0.766" fill="#ffffff" d="M 41.5,15.5 C 43.337,15.6395 43.6704,16.3061 42.5,17.5C 41.7025,17.0431 41.3691,16.3764 41.5,15.5 Z"/></g>
<g><path style="opacity:0.619" fill="#ffffff" d="M 19.5,28.5 C 16.3097,31.8872 12.3097,33.5538 7.5,33.5C 7.84617,29.333 10.1795,27.4997 14.5,28C 16.3545,24.7669 19.0212,23.4336 22.5,24C 25.5,28.6667 28.5,28.6667 31.5,24C 34.9457,23.3387 38.2791,22.5054 41.5,21.5C 42.1667,22.8333 42.8333,22.8333 43.5,21.5C 47.1606,19.0954 51.1606,17.4287 55.5,16.5C 54.8339,20.9907 52.1672,23.1574 47.5,23C 45.5554,26.3174 42.8888,27.1508 39.5,25.5C 35.0523,26.6508 31.0523,28.6508 27.5,31.5C 25.444,30.9524 23.7774,29.7858 22.5,28C 21.2506,27.2599 20.2506,27.4265 19.5,28.5 Z"/></g>
<g><path style="opacity:0.766" fill="#ffffff" d="M 19.5,19.5 C 21.337,19.6395 21.6704,20.3061 20.5,21.5C 19.7025,21.0431 19.3691,20.3764 19.5,19.5 Z"/></g>
<g><path style="opacity:0.766" fill="#ffffff" d="M 43.5,21.5 C 42.8333,21.5 42.1667,21.5 41.5,21.5C 42.1667,18.8333 42.8333,18.8333 43.5,21.5 Z"/></g>
<g><path style="opacity:0.766" fill="#ffffff" d="M 19.5,28.5 C 21.337,28.6395 21.6704,29.3061 20.5,30.5C 19.7025,30.0431 19.3691,29.3764 19.5,28.5 Z"/></g>
<g><path style="opacity:0.766" fill="#ffffff" d="M 41.5,28.5 C 43.337,28.6395 43.6704,29.3061 42.5,30.5C 41.7025,30.0431 41.3691,29.3764 41.5,28.5 Z"/></g>
<g><path style="opacity:0.766" fill="#ffffff" d="M 19.5,32.5 C 21.337,32.6395 21.6704,33.3061 20.5,34.5C 19.7025,34.0431 19.3691,33.3764 19.5,32.5 Z"/></g>
<g><path style="opacity:0.766" fill="#ffffff" d="M 41.5,32.5 C 43.337,32.6395 43.6704,33.3061 42.5,34.5C 41.7025,34.0431 41.3691,33.3764 41.5,32.5 Z"/></g>
<g><path style="opacity:0.766" fill="#ffffff" d="M 19.5,36.5 C 21.337,36.6395 21.6704,37.3061 20.5,38.5C 19.7025,38.0431 19.3691,37.3764 19.5,36.5 Z"/></g>
<g><path style="opacity:0.766" fill="#ffffff" d="M 41.5,36.5 C 43.337,36.6395 43.6704,37.3061 42.5,38.5C 41.7025,38.0431 41.3691,37.3764 41.5,36.5 Z"/></g>
<g><path style="opacity:0.766" fill="#ffffff" d="M 19.5,40.5 C 21.337,40.6395 21.6704,41.3061 20.5,42.5C 19.7025,42.0431 19.3691,41.3764 19.5,40.5 Z"/></g>
<g><path style="opacity:0.766" fill="#ffffff" d="M 41.5,40.5 C 43.337,40.6395 43.6704,41.3061 42.5,42.5C 41.7025,42.0431 41.3691,41.3764 41.5,40.5 Z"/></g>
<g><path style="opacity:0.883" fill="#ffffff" d="M 8.5,47.5 C 9.58617,47.62 10.2528,48.2867 10.5,49.5C 10.1667,50.1667 9.83333,50.8333 9.5,51.5C 8.57131,50.3112 8.23798,48.9778 8.5,47.5 Z"/></g>
<g><path style="opacity:0.883" fill="#ffffff" d="M 13.5,47.5 C 14.5862,47.62 15.2528,48.2867 15.5,49.5C 15.1667,50.1667 14.8333,50.8333 14.5,51.5C 13.5713,50.3112 13.238,48.9778 13.5,47.5 Z"/></g>
<g><path style="opacity:0.883" fill="#ffffff" d="M 18.5,47.5 C 19.5862,47.62 20.2528,48.2867 20.5,49.5C 20.1667,50.1667 19.8333,50.8333 19.5,51.5C 18.5713,50.3112 18.238,48.9778 18.5,47.5 Z"/></g>
<g><path style="opacity:0.883" fill="#ffffff" d="M 23.5,47.5 C 24.5862,47.62 25.2528,48.2867 25.5,49.5C 25.1667,50.1667 24.8333,50.8333 24.5,51.5C 23.5713,50.3112 23.238,48.9778 23.5,47.5 Z"/></g>
<g><path style="opacity:0.883" fill="#ffffff" d="M 28.5,47.5 C 29.5862,47.62 30.2528,48.2867 30.5,49.5C 30.1667,50.1667 29.8333,50.8333 29.5,51.5C 28.5713,50.3112 28.238,48.9778 28.5,47.5 Z"/></g>
<g><path style="opacity:0.883" fill="#ffffff" d="M 33.5,47.5 C 34.5862,47.62 35.2528,48.2867 35.5,49.5C 35.1667,50.1667 34.8333,50.8333 34.5,51.5C 33.5713,50.3112 33.238,48.9778 33.5,47.5 Z"/></g>
<g><path style="opacity:0.883" fill="#ffffff" d="M 38.5,47.5 C 39.5862,47.62 40.2528,48.2867 40.5,49.5C 40.1667,50.1667 39.8333,50.8333 39.5,51.5C 38.5713,50.3112 38.238,48.9778 38.5,47.5 Z"/></g>
<g><path style="opacity:0.883" fill="#ffffff" d="M 43.5,47.5 C 44.5862,47.62 45.2528,48.2867 45.5,49.5C 45.1667,50.1667 44.8333,50.8333 44.5,51.5C 43.5713,50.3112 43.238,48.9778 43.5,47.5 Z"/></g>
<g><path style="opacity:0.883" fill="#ffffff" d="M 48.5,47.5 C 49.5862,47.62 50.2528,48.2867 50.5,49.5C 50.1667,50.1667 49.8333,50.8333 49.5,51.5C 48.5713,50.3112 48.238,48.9778 48.5,47.5 Z"/></g>
<g><path style="opacity:0.883" fill="#ffffff" d="M 53.5,47.5 C 54.5862,47.62 55.2528,48.2867 55.5,49.5C 55.1667,50.1667 54.8333,50.8333 54.5,51.5C 53.5713,50.3112 53.238,48.9778 53.5,47.5 Z"/></g>
</svg>
