<svg width="50" height="50" viewBox="0 0 50 50" fill="none" xmlns="http://www.w3.org/2000/svg"><path fill-rule="evenodd" clip-rule="evenodd" d="M19.287 3.076q5.664-.024 11.328.049 2.906.757 3.662 3.662.074 1.269.05 2.54 3.612-.025 7.226.048 4.163 1.268 3.662 5.615-.634 2.588-3.125 3.516a3637 3637 0 0 1-2.832 24.902q-.832 2.688-3.565 3.37-10.693.096-21.386 0-2.875-.63-3.662-3.468Q9.24 30.906 7.812 18.507q-4.158-2.024-2.734-6.446 1.036-2.16 3.37-2.685 3.563-.073 7.128-.049-.726-4.726 3.711-6.25m.977 3.125q4.938-.067 9.863.147.66.269.928.927c.125.676.174 1.364.146 2.051h-12.5a9.2 9.2 0 0 1 .147-2.05q.413-.95 1.416-1.075m-10.938 6.25q15.626-.024 31.25.049 2.028.467 1.22 2.393-.477.568-1.22.634-15.624.097-31.25 0-2.028-.466-1.22-2.392.507-.558 1.22-.684m1.856 6.25H38.72q-1.245 11.871-2.588 23.73-.368 1.1-1.514 1.221a957 957 0 0 1-19.336 0q-.87-.006-1.318-.732a3.2 3.2 0 0 1-.293-1.27q-1.305-11.468-2.49-22.949" fill="#fff"/><path fill-rule="evenodd" clip-rule="evenodd" d="M19.678 21.826q1.444-.315 2.1.977.096 7.617 0 15.234-.413 1.023-1.514.977-1.103.045-1.514-.977a594 594 0 0 1 0-15.234 1.94 1.94 0 0 1 .928-.977m9.375 0q1.444-.315 2.1.977.096 7.617 0 15.234-.413 1.023-1.514.977-1.103.045-1.514-.977a594 594 0 0 1 0-15.234 1.94 1.94 0 0 1 .928-.977" fill="#fff"/></svg>