<svg width="65" height="65" viewBox="0 0 65 65" fill="none" xmlns="http://www.w3.org/2000/svg">
<path fill-rule="evenodd" clip-rule="evenodd" d="M14 1H51C58.1797 1 64 6.8203 64 14V51C64 58.1797 58.1797 64 51 64H14C6.8203 64 1 58.1797 1 51V14C1 6.8203 6.8203 1 14 1ZM0 14C0 6.26801 6.26801 0 14 0H51C58.732 0 65 6.26801 65 14V51C65 58.732 58.732 65 51 65H14C6.26801 65 0 58.732 0 51V14ZM40 16C40 20.4183 36.4183 24 32 24C27.5817 24 24 20.4183 24 16C24 11.5817 27.5817 8 32 8C36.4183 8 40 11.5817 40 16ZM41 16C41 20.9706 36.9706 25 32 25C27.0294 25 23 20.9706 23 16C23 11.0294 27.0294 7 32 7C36.9706 7 41 11.0294 41 16ZM32.5148 32C37.6349 32 42.3369 34.2476 46.0295 38H46V39V39.43V51V52H45H20H19V51V39L19 38C22.6926 34.2476 27.3947 32 32.5148 32ZM32.5148 33C37.163 33 41.5067 34.9942 44.9886 38.3804C44.9961 38.5834 45 38.7902 45 39V51H20V39H20.0092C20.0031 38.8358 20 38.669 20 38.5L20.0002 38.4201C23.4889 35.0098 27.8484 33 32.5148 33Z" fill="white"/>
</svg>
