<svg xmlns="http://www.w3.org/2000/svg" width="512" height="512" style="shape-rendering:geometricPrecision;text-rendering:geometricPrecision;image-rendering:optimizeQuality;fill-rule:evenodd;clip-rule:evenodd"><path style="opacity:1" fill="#fff" d="M197.5 31.5q58.002-.25 116 .5 29.75 7.75 37.5 37.5.75 12.99.5 26 37.004-.25 74 .5 42.631 12.98 37.5 57.5-6.49 26.487-32 36a37271 37271 0 0 1-29 255q-8.52 27.52-36.5 34.5-109.5 1-219 0-29.432-6.43-37.5-35.5a147931 147931 0 0 0-29-254q-42.582-20.721-28-66Q62.617 101.38 86.5 96q36.496-.75 73-.5-7.443-48.402 38-64m10 32q50.562-.698 101 1.5 6.75 2.75 9.5 9.5a93.8 93.8 0 0 1 1.5 21h-128a93.8 93.8 0 0 1 1.5-21q4.232-9.716 14.5-11m-112 64q160-.25 320 .5 20.765 4.78 12.5 24.5-4.895 5.823-12.5 6.5-160 1-320 0-20.766-4.78-12.5-24.5 5.195-5.716 12.5-7m19 64h282a30043 30043 0 0 1-26.5 243q-3.753 11.258-15.5 12.5-99 1-198 0-8.901-.072-13.5-7.5a32.65 32.65 0 0 1-3-13 22970 22970 0 0 1-25.5-235"/><path style="opacity:1" fill="#fff" d="M201.5 223.5q14.79-3.225 21.5 10 1 78 0 156-4.21 10.48-15.5 10-11.29.48-15.5-10-1-78 0-156 3.033-6.78 9.5-10m96 0q14.79-3.225 21.5 10 1 78 0 156-4.21 10.48-15.5 10-11.29.48-15.5-10-1-78 0-156 3.033-6.78 9.5-10"/></svg>