<svg width="50" height="52" viewBox="0 0 50 52" fill="none" xmlns="http://www.w3.org/2000/svg">
<path fill-rule="evenodd" clip-rule="evenodd" d="M24 0C23.4477 0 23 0.447708 23 1V19C23 19.5523 23.4477 20 24 20H26C26.5523 20 27 19.5523 27 19V1C27 0.447708 26.5523 0 26 0H24ZM39.2758 6.23172L37 9.41783V9.52167C42.4404 13.3165 46 19.6214 46 26.7576C46 38.3556 36.598 47.7576 25 47.7576C13.402 47.7576 4 38.3556 4 26.7576C4 19.5979 7.58301 13.2751 13.0537 9.48434L11.0659 6.00566L11.0626 5.99998C4.38989 10.4891 0 18.1107 0 26.7576C0 40.5647 11.1929 51.7576 25 51.7576C38.8071 51.7576 50 40.5647 50 26.7576C50 18.2578 45.7581 10.7486 39.2758 6.23172Z" fill="#4CAF50"/>
</svg>
